<?xml version="1.0" encoding="UTF-8" standalone="no"?>
<!DOCTYPE svg PUBLIC "-//W3C//DTD SVG 1.1//EN" "http://www.w3.org/Graphics/SVG/1.1/DTD/svg11.dtd">
<svg xmlns="http://www.w3.org/2000/svg" version="1.1" viewBox="0 0 227 212">
<g stroke-width="2.00" fill="none" stroke-linecap="butt">
<path stroke="#a8bebe" stroke-opacity="0.553" vector-effect="non-scaling-stroke" d="
  M 28.96 25.25
  Q 29.03 36.25 29.00 47.25
  Q 29.00 48.42 30.50 48.04"
/>
<path stroke="#a8bebe" stroke-opacity="0.553" vector-effect="non-scaling-stroke" d="
  M 49.96 60.00
  L 49.92 184.50"
/>
<path stroke="#a8bebe" stroke-opacity="0.553" vector-effect="non-scaling-stroke" d="
  M 192.75 25.54
  Q 191.28 24.82 191.09 23.37
  A 1.23 1.22 89.4 0 0 190.02 22.32
  Q 186.11 21.87 182.25 21.88
  Q 147.75 21.97 113.25 22.04"
/>
<path stroke="#1a1164" stroke-opacity="0.553" vector-effect="non-scaling-stroke" d="
  M 113.25 22.04
  L 108.01 21.97"
/>
<path stroke="#a8bebe" stroke-opacity="0.553" vector-effect="non-scaling-stroke" d="
  M 108.01 21.97
  L 36.00 21.96"
/>
<path stroke="#8d9f9f" stroke-opacity="0.663" vector-effect="non-scaling-stroke" d="
  M 192.75 25.54
  L 193.04 29.50"
/>
<path stroke="#889999" stroke-opacity="0.686" vector-effect="non-scaling-stroke" d="
  M 193.04 29.50
  L 192.98 30.60"
/>
<path stroke="#849595" stroke-opacity="0.706" vector-effect="non-scaling-stroke" d="
  M 192.98 30.60
  L 193.04 32.50"
/>
<path stroke="#798888" stroke-opacity="0.773" vector-effect="non-scaling-stroke" d="
  M 193.04 32.50
  Q 193.54 38.69 191.71 44.64"
/>
<path stroke="#6e7c7c" stroke-opacity="0.847" vector-effect="non-scaling-stroke" d="
  M 191.71 44.64
  Q 189.63 47.44 186.62 47.97
  C 183.56 48.52 177.06 48.00 172.88 48.00
  A 0.88 0.88 89.3 0 0 172.00 48.88
  L 172.26 147.51"
/>
<path stroke="#798888" stroke-opacity="0.773" vector-effect="non-scaling-stroke" d="
  M 172.26 147.51
  L 177.00 148.46"
/>
<path stroke="#889999" stroke-opacity="0.686" vector-effect="non-scaling-stroke" d="
  M 177.00 148.46
  L 179.71 149.00"
/>
<path stroke="#9cb0b0" stroke-opacity="0.596" vector-effect="non-scaling-stroke" d="
  M 179.71 149.00
  Q 187.93 152.04 192.00 159.79"
/>
<path stroke="#8d9f9f" stroke-opacity="0.663" vector-effect="non-scaling-stroke" d="
  M 192.00 159.79
  Q 193.04 161.50 193.29 163.50"
/>
<path stroke="#7c8c8c" stroke-opacity="0.753" vector-effect="non-scaling-stroke" d="
  M 193.29 163.50
  C 195.33 173.95 191.38 186.28 178.75 186.36
  C 170.02 186.41 164.11 186.71 157.18 182.91"
/>
<path stroke="#b1c8c8" vector-effect="non-scaling-stroke" d="
  M 157.18 182.91
  C 164.44 166.80 164.44 148.91 151.30 135.68
  Q 149.49 133.85 151.98 133.19
  C 160.67 130.90 161.72 124.98 161.79 116.42
  C 161.89 103.65 161.42 90.46 162.42 77.76
  C 163.10 69.22 166.00 49.16 152.54 48.75"
/>
<path stroke="#7871a6" vector-effect="non-scaling-stroke" d="
  M 152.54 48.75
  Q 145.78 42.52 143.88 52.28"
/>
<path stroke="#afc6c6" vector-effect="non-scaling-stroke" d="
  M 143.88 52.28
  Q 142.38 48.46 142.07 44.45
  C 141.64 38.95 140.57 35.59 134.79 34.75"
/>
<path stroke="#6f72a2" vector-effect="non-scaling-stroke" d="
  M 134.79 34.75
  Q 131.84 27.00 125.47 33.08"
/>
<path stroke="#afc6c6" vector-effect="non-scaling-stroke" d="
  M 125.47 33.08
  Q 123.27 25.11 115.54 25.25"
/>
<path stroke="#6c73a0" vector-effect="non-scaling-stroke" d="
  M 113.25 22.04
  Q 114.78 23.39 115.54 25.25"
/>
<path stroke="#616794" vector-effect="non-scaling-stroke" d="
  M 115.54 25.25
  L 116.04 31.75"
/>
<path stroke="#484a78" vector-effect="non-scaling-stroke" d="
  M 116.04 31.75
  L 116.20 47.96"
/>
<path stroke="#110b41" stroke-opacity="0.847" vector-effect="non-scaling-stroke" d="
  M 116.20 47.96
  Q 115.67 50.71 116.24 53.33"
/>
<path stroke="#311178" vector-effect="non-scaling-stroke" d="
  M 116.24 53.33
  Q 110.14 49.89 107.83 53.80
  Q 106.80 55.54 106.62 60.39
  Q 106.44 64.95 106.29 69.50"
/>
<path stroke="#1a1164" stroke-opacity="0.553" vector-effect="non-scaling-stroke" d="
  M 106.29 69.50
  L 106.04 60.86"
/>
<path stroke="#170f58" stroke-opacity="0.624" vector-effect="non-scaling-stroke" d="
  M 106.04 60.86
  Q 106.44 60.10 106.21 59.00"
/>
<path stroke="#150d4e" stroke-opacity="0.706" vector-effect="non-scaling-stroke" d="
  M 106.21 59.00
  L 106.21 56.00"
/>
<path stroke="#120c43" stroke-opacity="0.820" vector-effect="non-scaling-stroke" d="
  M 106.21 56.00
  L 106.21 48.00"
/>
<path stroke="#6c73a0" vector-effect="non-scaling-stroke" d="
  M 108.01 21.97
  Q 105.13 34.82 106.21 48.00"
/>
<path stroke="#718081" stroke-opacity="0.820" vector-effect="non-scaling-stroke" d="
  M 106.21 48.00
  L 97.25 47.96"
/>
<path stroke="#7272a3" vector-effect="non-scaling-stroke" d="
  M 97.25 47.96
  C 97.16 44.55 97.00 39.99 94.24 37.78
  Q 91.82 35.84 89.40 38.09
  C 86.89 40.43 87.02 44.73 87.00 47.96"
/>
<path stroke="#677474" stroke-opacity="0.929" vector-effect="non-scaling-stroke" d="
  M 87.00 47.96
  C 84.50 47.48 85.00 49.03 85.00 50.58
  Q 85.03 76.29 84.96 102.00"
/>
<path stroke="#a8bebe" vector-effect="non-scaling-stroke" d="
  M 84.96 102.00
  Q 84.84 104.23 83.95 102.99
  Q 83.66 102.57 83.24 102.35
  C 81.27 101.29 81.17 99.42 79.95 98.18
  Q 77.50 95.71 73.75 95.79"
/>
<path stroke="#8a6faf" vector-effect="non-scaling-stroke" d="
  M 73.75 95.79
  Q 70.28 91.12 64.71 91.27
  C 61.74 91.36 57.99 92.94 61.44 96.56
  Q 68.03 103.49 69.22 112.22
  Q 70.00 117.88 69.75 120.50
  Q 68.62 132.26 69.96 144.00"
/>
<path stroke="#afc6c6" vector-effect="non-scaling-stroke" d="
  M 69.96 144.00
  Q 67.45 147.24 69.66 150.65
  Q 69.93 151.08 69.98 151.56
  Q 70.38 156.21 72.00 159.75
  C 73.52 163.07 73.94 166.57 75.18 169.40
  Q 78.26 176.38 82.24 182.88"
/>
<path stroke="#6a7979" stroke-opacity="0.882" vector-effect="non-scaling-stroke" d="
  M 82.24 182.88
  C 78.39 187.39 67.74 186.08 56.99 186.12"
/>
<path stroke="#7c8c8c" stroke-opacity="0.753" vector-effect="non-scaling-stroke" d="
  M 56.99 186.12
  L 54.50 186.04"
/>
<path stroke="#8d9f9f" stroke-opacity="0.663" vector-effect="non-scaling-stroke" d="
  M 54.50 186.04
  L 53.50 186.04"
/>
<path stroke="#9cb0b0" stroke-opacity="0.596" vector-effect="non-scaling-stroke" d="
  M 53.50 186.04
  C 51.98 185.93 49.67 186.72 49.92 184.50"
/>
<path stroke="#889999" stroke-opacity="0.686" vector-effect="non-scaling-stroke" d="
  M 49.96 60.00
  L 49.96 57.00"
/>
<path stroke="#758484" stroke-opacity="0.804" vector-effect="non-scaling-stroke" d="
  M 49.96 57.00
  L 50.00 48.65
  A 0.65 0.65 0.0 0 0 49.35 48.00
  L 34.50 48.04"
/>
<path stroke="#889999" stroke-opacity="0.686" vector-effect="non-scaling-stroke" d="
  M 34.50 48.04
  L 30.50 48.04"
/>
<path stroke="#6d659a" vector-effect="non-scaling-stroke" d="
  M 143.88 52.28
  L 144.04 75.75"
/>
<path stroke="#7b64a1" vector-effect="non-scaling-stroke" d="
  M 144.04 75.75
  L 144.04 92.75"
/>
<path stroke="#8263a4" vector-effect="non-scaling-stroke" d="
  M 144.04 92.75
  L 143.75 109.01
  A 0.72 0.71 -78.1 0 1 142.76 109.66
  L 138.75 107.96"
/>
<path stroke="#94a8a8" vector-effect="non-scaling-stroke" d="
  M 138.75 107.96
  Q 138.92 103.57 139.23 99.20
  C 140.30 83.68 139.18 67.84 139.64 52.26
  C 139.75 48.41 139.72 38.34 134.79 37.50"
/>
<path stroke="#646696" vector-effect="non-scaling-stroke" d="
  M 134.79 34.75
  L 134.79 37.50"
/>
<path stroke="#545484" vector-effect="non-scaling-stroke" d="
  M 134.79 37.50
  L 135.00 47.79"
/>
<path stroke="#140b3a" stroke-opacity="0.996" vector-effect="non-scaling-stroke" d="
  M 135.00 47.79
  L 134.96 66.00"
/>
<path stroke="#321178" vector-effect="non-scaling-stroke" d="
  M 134.96 66.00
  L 134.12 58.24
  A 0.49 0.45 -10.5 0 0 133.52 57.87
  Q 131.27 58.37 128.98 58.30
  C 127.69 58.27 125.40 56.65 125.42 59.69
  Q 125.42 59.97 125.38 59.68
  L 125.04 57.25"
/>
<path stroke="#1a0d53" stroke-opacity="0.686" vector-effect="non-scaling-stroke" d="
  M 125.04 57.25
  L 124.96 57.00"
/>
<path stroke="#180c4c" stroke-opacity="0.753" vector-effect="non-scaling-stroke" d="
  M 124.96 57.00
  L 124.96 55.00"
/>
<path stroke="#150b44" stroke-opacity="0.847" vector-effect="non-scaling-stroke" d="
  M 124.96 55.00
  L 124.92 48.03"
/>
<path stroke="#646696" vector-effect="non-scaling-stroke" d="
  M 125.47 33.08
  L 124.92 48.03"
/>
<path stroke="#616e6e" stroke-opacity="0.847" vector-effect="non-scaling-stroke" d="
  M 124.92 48.03
  L 119.50 47.96"
/>
<path stroke="#8c9d9e" vector-effect="non-scaling-stroke" d="
  M 119.50 47.96
  L 118.57 33.75
  A 1.01 0.91 15.0 0 0 118.08 32.99
  L 116.04 31.75"
/>
<path stroke="#130d4a" stroke-opacity="0.753" vector-effect="non-scaling-stroke" d="
  M 90.50 181.71
  C 107.93 192.06 133.23 193.21 147.00 175.96"
/>
<path stroke="#6f7e7f" stroke-opacity="0.753" vector-effect="non-scaling-stroke" d="
  M 157.18 182.91
  L 155.25 182.21"
/>
<path stroke="#a7bdbe" vector-effect="non-scaling-stroke" d="
  M 155.25 182.21
  C 161.18 171.27 162.61 157.45 156.71 146.25
  Q 154.60 142.22 151.31 137.94
  Q 148.91 134.81 145.75 134.29"
/>
<path stroke="#7c65a3" vector-effect="non-scaling-stroke" d="
  M 145.75 134.29
  Q 141.79 129.96 136.78 127.08"
/>
<path stroke="#7e8f90" stroke-opacity="0.663" vector-effect="non-scaling-stroke" d="
  M 136.78 127.08
  L 137.00 124.25"
/>
<path stroke="#95a9aa" vector-effect="non-scaling-stroke" d="
  M 137.00 124.25
  C 141.25 123.85 143.70 126.34 146.76 127.13
  Q 150.05 127.97 153.50 127.75
  A 2.61 2.11 10.3 0 0 155.44 126.69
  C 158.09 122.29 157.76 119.28 157.73 113.02
  Q 157.65 96.73 157.93 80.44
  Q 157.94 80.13 158.25 79.55
  Q 158.46 79.16 158.36 78.67
  Q 158.21 77.98 158.23 77.69
  Q 158.37 75.87 158.33 74.06
  C 158.25 70.25 159.83 54.28 153.79 54.50"
/>
<path stroke="#6f679c" vector-effect="non-scaling-stroke" d="
  M 152.54 48.75
  L 153.79 54.50"
/>
<path stroke="#5d5388" vector-effect="non-scaling-stroke" d="
  M 153.79 54.50
  L 154.04 57.25"
/>
<path stroke="#51467b" vector-effect="non-scaling-stroke" d="
  M 154.04 57.25
  L 153.21 78.00"
/>
<path stroke="#440f81" vector-effect="non-scaling-stroke" d="
  M 153.21 78.00
  Q 153.23 76.76 152.57 75.87
  A 1.30 1.04 -9.4 0 0 151.77 75.42
  Q 147.87 74.80 144.04 75.75"
/>
<path stroke="#560b81" stroke-opacity="0.553" vector-effect="non-scaling-stroke" d="
  M 106.46 101.00
  Q 105.95 103.98 106.58 105.64
  Q 107.44 107.91 105.52 109.16
  L 100.75 112.29"
/>
<path stroke="#28094d" stroke-opacity="0.847" vector-effect="non-scaling-stroke" d="
  M 116.04 64.50
  L 116.24 53.33"
/>
<path stroke="#430965" stroke-opacity="0.706" vector-effect="non-scaling-stroke" d="
  M 100.75 112.29
  L 98.62 113.92
  A 1.28 0.58 -44.8 0 1 97.74 114.25
  Q 97.22 114.15 97.35 113.50"
/>
<path stroke="#320b5e" stroke-opacity="0.686" vector-effect="non-scaling-stroke" d="
  M 115.93 102.51
  L 115.63 105.59"
/>
<path stroke="#520e88" vector-effect="non-scaling-stroke" d="
  M 115.63 105.59
  Q 115.50 97.52 114.09 89.75
  A 0.62 0.61 85.9 0 0 113.51 89.24
  C 109.83 89.11 106.50 88.46 106.51 93.43
  Q 106.52 97.21 106.46 101.00"
/>
<path stroke="#3e0e75" stroke-opacity="0.553" vector-effect="non-scaling-stroke" d="
  M 106.46 101.00
  L 106.29 69.50"
/>
<path stroke="#3a0757" stroke-opacity="0.820" vector-effect="non-scaling-stroke" d="
  M 97.35 113.50
  L 96.96 86.75"
/>
<path stroke="#29094f" stroke-opacity="0.820" vector-effect="non-scaling-stroke" d="
  M 96.96 86.75
  L 96.96 57.50"
/>
<path stroke="#444c4d" stroke-opacity="0.847" vector-effect="non-scaling-stroke" d="
  M 119.50 47.96
  L 116.20 47.96"
/>
<path stroke="#665d92" vector-effect="non-scaling-stroke" d="
  M 84.88 160.58
  Q 82.45 158.49 82.19 155.26"
/>
<path stroke="#859596" vector-effect="non-scaling-stroke" d="
  M 82.19 155.26
  C 82.34 151.12 83.95 104.68 77.79 106.75"
/>
<path stroke="#785b9b" vector-effect="non-scaling-stroke" d="
  M 73.75 95.79
  Q 77.02 100.81 77.79 106.75"
/>
<path stroke="#674687" vector-effect="non-scaling-stroke" d="
  M 77.79 106.75
  C 79.20 118.98 77.80 131.05 79.25 143.35"
/>
<path stroke="#480e83" vector-effect="non-scaling-stroke" d="
  M 79.25 143.35
  Q 76.91 147.41 71.70 146.01
  Q 70.83 145.77 70.50 146.54"
/>
<path stroke="#7f63a3" vector-effect="non-scaling-stroke" d="
  M 70.50 146.54
  L 69.96 144.00"
/>
<path stroke="#616794" vector-effect="non-scaling-stroke" d="
  M 82.94 174.94
  L 84.00 176.79"
/>
<path stroke="#5e6b6b" stroke-opacity="0.882" vector-effect="non-scaling-stroke" d="
  M 84.00 176.79
  Q 83.84 180.27 82.24 182.88"
/>
<path stroke="#1a0b47" stroke-opacity="0.820" vector-effect="non-scaling-stroke" d="
  M 97.25 47.96
  L 96.96 57.50"
/>
<path stroke="#37117b" vector-effect="non-scaling-stroke" d="
  M 96.96 57.50
  Q 97.20 60.93 96.14 59.94
  A 1.25 1.05 62.5 0 0 95.32 59.60
  L 89.29 59.77
  A 1.83 1.83 1.7 0 0 87.51 61.44
  L 87.04 67.00"
/>
<path stroke="#1b0c49" stroke-opacity="0.804" vector-effect="non-scaling-stroke" d="
  M 87.04 67.00
  L 86.96 58.50"
/>
<path stroke="#190c41" stroke-opacity="0.929" vector-effect="non-scaling-stroke" d="
  M 86.96 58.50
  L 87.00 47.96"
/>
<path stroke="#535e5d" stroke-opacity="0.929" vector-effect="non-scaling-stroke" d="
  M 85.15 144.51
  L 84.96 102.00"
/>
<path stroke="#580d8b" vector-effect="non-scaling-stroke" d="
  M 153.16 94.14
  Q 149.80 92.02 145.20 93.42
  Q 144.69 93.58 144.85 93.07
  Q 145.04 92.46 144.04 92.75"
/>
<path stroke="#715192" vector-effect="non-scaling-stroke" d="
  M 138.75 107.96
  Q 137.51 107.91 136.71 107.00"
/>
<path stroke="#556161" stroke-opacity="0.773" vector-effect="non-scaling-stroke" d="
  M 136.71 107.00
  L 136.96 82.75"
/>
<path stroke="#434d4c" stroke-opacity="0.996" vector-effect="non-scaling-stroke" d="
  M 136.96 82.75
  L 136.94 48.82
  A 0.73 0.60 -84.6 0 0 136.47 48.13
  L 135.00 47.79"
/>
<path stroke="#410861" stroke-opacity="0.733" vector-effect="non-scaling-stroke" d="
  M 137.00 117.04
  C 124.62 112.57 108.26 114.51 100.71 126.50"
/>
<path stroke="#580d8b" vector-effect="non-scaling-stroke" d="
  M 100.71 126.50
  L 98.36 128.28
  A 0.93 0.49 25.3 0 1 97.63 128.31
  Q 97.22 128.18 97.17 128.69
  Q 97.14 129.01 96.97 128.74
  C 96.15 127.47 91.47 128.02 90.06 128.14
  A 0.59 0.50 78.9 0 1 89.51 127.70
  L 88.04 122.50"
/>
<path stroke="#2e0b5c" stroke-opacity="0.686" vector-effect="non-scaling-stroke" d="
  M 125.04 57.25
  L 124.96 63.00"
/>
<path stroke="#450968" stroke-opacity="0.686" vector-effect="non-scaling-stroke" d="
  M 122.75 105.79
  Q 119.54 106.47 115.63 105.59"
/>
<path stroke="#020301" stroke-opacity="0.769" vector-effect="non-scaling-stroke" d="
  M 136.96 82.75
  Q 136.66 82.60 136.71 82.25"
/>
<path stroke="#030302" stroke-opacity="0.592" vector-effect="non-scaling-stroke" d="
  M 136.71 82.25
  L 136.71 66.00"
/>
<path stroke="#020301" stroke-opacity="0.769" vector-effect="non-scaling-stroke" d="
  M 136.71 66.00
  C 136.73 64.93 137.32 56.46 135.94 57.01
  A 0.85 0.73 81.8 0 0 135.48 57.74
  C 135.09 66.45 136.21 75.17 134.79 82.75"
/>
<path stroke="#210a40" stroke-opacity="0.996" vector-effect="non-scaling-stroke" d="
  M 134.79 82.75
  L 134.96 66.00"
/>
<path stroke="#480e83" vector-effect="non-scaling-stroke" d="
  M 134.54 83.00
  L 134.44 78.06
  Q 134.39 75.70 132.81 75.81
  L 128.06 76.16
  A 1.02 0.84 65.6 0 1 127.28 75.78
  Q 126.87 75.25 126.63 75.49
  A 0.43 0.34 -47.0 0 1 126.11 75.57
  Q 125.38 74.93 125.04 76.75"
/>
<path stroke="#370d6f" stroke-opacity="0.573" vector-effect="non-scaling-stroke" d="
  M 125.04 76.75
  L 124.96 63.00"
/>
<path stroke="#2d0a56" stroke-opacity="0.753" vector-effect="non-scaling-stroke" d="
  M 115.93 102.51
  L 116.04 64.50"
/>
<path stroke="#96aaa9" vector-effect="non-scaling-stroke" d="
  M 154.89 147.20
  Q 154.62 149.20 156.07 150.71
  A 2.02 1.31 26.9 0 1 156.55 151.54
  Q 159.72 165.19 154.44 178.04
  Q 154.25 178.51 154.52 178.08
  Q 157.74 172.90 157.99 166.75
  Q 157.99 166.51 158.33 165.88
  C 158.81 164.95 158.48 160.57 158.54 157.25"
/>
<path stroke="#9db2b2" vector-effect="non-scaling-stroke" d="
  M 158.54 157.25
  Q 160.01 170.13 153.86 181.33"
/>
<path stroke="#647171" stroke-opacity="0.753" vector-effect="non-scaling-stroke" d="
  M 153.86 181.33
  Q 153.46 181.36 152.46 180.50"
/>
<path stroke="#819392" vector-effect="non-scaling-stroke" d="
  M 152.46 180.50
  L 154.07 176.31"
/>
<path stroke="#8da09f" vector-effect="non-scaling-stroke" d="
  M 154.07 176.31
  Q 160.34 162.90 154.42 149.53"
/>
<path stroke="#819392" vector-effect="non-scaling-stroke" d="
  M 154.42 149.53
  C 154.15 148.73 153.23 145.70 152.00 146.29"
/>
<path stroke="#6d7c7c" stroke-opacity="0.753" vector-effect="non-scaling-stroke" d="
  M 154.75 181.96
  Q 154.58 182.01 153.86 181.33"
/>
<path stroke="#9db2b2" vector-effect="non-scaling-stroke" d="
  M 158.54 157.25
  Q 158.50 157.12 158.41 157.02"
/>
<path stroke="#6f7e7f" stroke-opacity="0.753" vector-effect="non-scaling-stroke" d="
  M 155.25 182.21
  Q 154.97 182.16 154.75 181.96"
/>
<path stroke="#a6bcbc" vector-effect="non-scaling-stroke" d="
  M 154.75 181.96
  C 155.28 178.98 157.14 176.84 157.77 174.24
  C 160.14 164.58 160.52 153.80 155.25 145.25"
/>
<path stroke="#a6bcbc" vector-effect="non-scaling-stroke" d="
  M 155.25 145.25
  Q 154.63 142.96 153.05 141.31
  Q 152.20 140.41 152.68 141.55
  Q 153.59 143.70 155.25 145.25"
/>
<path stroke="#a6bcbc" vector-effect="non-scaling-stroke" d="
  M 155.25 145.25
  Q 157.85 150.88 158.41 157.02"
/>
<path stroke="#9fb4b4" vector-effect="non-scaling-stroke" d="
  M 158.41 157.02
  Q 157.52 151.77 154.89 147.20"
/>
<path stroke="#9fb4b4" vector-effect="non-scaling-stroke" d="
  M 154.89 147.20
  Q 154.17 143.00 150.25 141.29"
/>
<path stroke="#788888" vector-effect="non-scaling-stroke" d="
  M 154.42 149.53
  Q 158.34 162.97 154.07 176.31"
/>
<path stroke="#485252" stroke-opacity="0.753" vector-effect="non-scaling-stroke" d="
  M 152.46 180.50
  Q 151.01 176.68 147.00 175.96"
/>
<path stroke="#454775" vector-effect="non-scaling-stroke" d="
  M 147.00 175.96
  L 148.79 172.00"
/>
<path stroke="#51467b" vector-effect="non-scaling-stroke" d="
  M 148.79 172.00
  Q 154.37 160.73 152.21 148.25"
/>
<path stroke="#110d40" stroke-opacity="0.882" vector-effect="non-scaling-stroke" d="
  M 90.50 181.71
  Q 87.60 178.77 84.00 176.79"
/>
<path stroke="#191161" stroke-opacity="0.573" vector-effect="non-scaling-stroke" d="
  M 95.29 173.50
  C 108.10 181.62 131.23 184.69 140.00 169.04"
/>
<path stroke="#7c65a3" vector-effect="non-scaling-stroke" d="
  M 145.75 134.29
  L 150.25 141.29"
/>
<path stroke="#745c98" vector-effect="non-scaling-stroke" d="
  M 150.25 141.29
  L 152.00 146.29"
/>
<path stroke="#5f4481" vector-effect="non-scaling-stroke" d="
  M 152.00 146.29
  L 152.21 148.25"
/>
<path stroke="#440f81" vector-effect="non-scaling-stroke" d="
  M 152.21 148.25
  Q 151.54 148.60 151.47 149.24
  A 0.65 0.46 -86.5 0 1 151.00 149.82
  L 144.70 149.98
  A 1.26 0.60 6.7 0 0 143.83 150.28
  L 143.46 150.75"
/>
<path stroke="#7c65a3" vector-effect="non-scaling-stroke" d="
  M 143.46 150.75
  Q 143.13 150.49 143.21 150.00"
/>
<path stroke="#6a518e" vector-effect="non-scaling-stroke" d="
  M 143.21 150.00
  Q 141.91 143.97 137.20 140.08"
/>
<path stroke="#390960" stroke-opacity="0.706" vector-effect="non-scaling-stroke" d="
  M 137.20 140.08
  C 135.61 136.52 127.60 133.94 124.08 133.33
  Q 118.76 132.42 115.96 136.75"
/>
<path stroke="#4b0e84" vector-effect="non-scaling-stroke" d="
  M 115.96 136.75
  L 115.06 140.45
  A 0.35 0.35 24.0 0 1 114.53 140.65
  Q 112.52 139.38 110.16 140.04
  Q 109.79 140.14 109.35 140.55
  Q 108.25 141.58 107.04 140.50"
/>
<path stroke="#250b53" stroke-opacity="0.733" vector-effect="non-scaling-stroke" d="
  M 99.21 147.75
  L 97.96 144.00"
/>
<path stroke="#37095c" stroke-opacity="0.733" vector-effect="non-scaling-stroke" d="
  M 97.96 144.00
  Q 95.50 134.56 100.71 126.50"
/>
<path stroke="#3d0a66" stroke-opacity="0.663" vector-effect="non-scaling-stroke" d="
  M 136.78 127.08
  L 133.00 125.79"
/>
<path stroke="#290c5d" stroke-opacity="0.663" vector-effect="non-scaling-stroke" d="
  M 100.46 150.25
  Q 99.54 149.14 99.21 147.75"
/>
<path stroke="#596666" stroke-opacity="0.733" vector-effect="non-scaling-stroke" d="
  M 137.00 124.25
  L 137.04 122.04"
/>
<path stroke="#788888" vector-effect="non-scaling-stroke" d="
  M 137.04 122.04
  Q 142.68 122.40 147.45 125.12
  C 157.51 130.85 155.52 116.23 155.64 111.75
  Q 156.02 97.61 156.01 83.47
  C 156.01 77.80 156.80 70.28 156.41 63.59
  C 156.28 61.23 157.71 58.28 154.04 57.25"
/>
<path stroke="#4a5454" stroke-opacity="0.733" vector-effect="non-scaling-stroke" d="
  M 137.04 122.04
  L 137.00 117.04"
/>
<path stroke="#664485" vector-effect="non-scaling-stroke" d="
  M 137.00 117.04
  C 141.70 118.56 152.04 126.39 152.75 116.00
  Q 152.99 112.55 153.16 94.14"
/>
<path stroke="#5f4481" vector-effect="non-scaling-stroke" d="
  M 153.16 94.14
  L 153.21 78.00"
/>
<path stroke="#520e88" vector-effect="non-scaling-stroke" d="
  M 96.96 86.75
  Q 96.59 90.04 96.05 88.05
  A 0.46 0.46 74.4 0 0 95.47 87.72
  Q 92.95 88.54 90.31 88.15
  A 0.73 0.68 18.0 0 0 89.57 88.50
  Q 87.72 92.02 88.25 95.75
  Q 88.49 97.45 87.79 98.50"
/>
<path stroke="#2b0a51" stroke-opacity="0.804" vector-effect="non-scaling-stroke" d="
  M 87.04 67.00
  Q 86.75 70.36 87.56 77.94
  Q 87.94 81.50 87.79 98.50"
/>
<path stroke="#3c0859" stroke-opacity="0.804" vector-effect="non-scaling-stroke" d="
  M 87.79 98.50
  L 88.04 122.50"
/>
<path stroke="#330955" stroke-opacity="0.804" vector-effect="non-scaling-stroke" d="
  M 88.04 122.50
  Q 87.44 134.68 88.84 146.77"
/>
<path stroke="#220b4d" stroke-opacity="0.804" vector-effect="non-scaling-stroke" d="
  M 88.84 146.77
  L 91.75 155.46"
/>
<path stroke="#220b4d" stroke-opacity="0.804" vector-effect="non-scaling-stroke" d="
  M 89.71 168.50
  Q 86.19 165.10 84.88 160.58"
/>
<path stroke="#5e6b6a" stroke-opacity="0.804" vector-effect="non-scaling-stroke" d="
  M 84.88 160.58
  L 85.15 144.51"
/>
<path stroke="#270b58" stroke-opacity="0.698" vector-effect="non-scaling-stroke" d="
  M 89.71 168.50
  L 93.71 172.00"
/>
<path stroke="#2f0e6b" stroke-opacity="0.573" vector-effect="non-scaling-stroke" d="
  M 93.71 172.00
  L 95.29 173.50"
/>
<path stroke="#2a1274" vector-effect="non-scaling-stroke" d="
  M 95.29 173.50
  L 82.94 174.94"
/>
<path stroke="#6d659a" vector-effect="non-scaling-stroke" d="
  M 82.94 174.94
  Q 72.50 162.82 70.50 146.54"
/>
<path stroke="#55487e" vector-effect="non-scaling-stroke" d="
  M 82.19 155.26
  Q 79.59 149.35 79.25 143.35"
/>
<path stroke="#3e085c" stroke-opacity="0.773" vector-effect="non-scaling-stroke" d="
  M 136.71 107.00
  Q 134.97 107.04 134.08 105.26"
/>
<path stroke="#350858" stroke-opacity="0.773" vector-effect="non-scaling-stroke" d="
  M 134.08 105.26
  C 134.21 96.59 132.95 86.73 134.54 83.00"
/>
<path stroke="#290a52" stroke-opacity="0.773" vector-effect="non-scaling-stroke" d="
  M 134.54 83.00
  Q 134.75 82.96 134.79 82.75"
/>
<path stroke="#470b76" stroke-opacity="0.573" vector-effect="non-scaling-stroke" d="
  M 125.04 76.75
  L 125.04 94.75"
/>
<path stroke="#530b7d" stroke-opacity="0.573" vector-effect="non-scaling-stroke" d="
  M 125.04 94.75
  L 124.95 104.44
  A 0.85 0.65 83.6 0 1 124.50 105.19
  L 122.75 105.79"
/>
<path stroke="#580d8b" vector-effect="non-scaling-stroke" d="
  M 134.08 105.26
  Q 134.05 100.09 133.04 95.06
  A 0.43 0.43 -15.9 0 0 132.47 94.75
  Q 130.14 95.58 126.90 95.13
  A 0.56 0.55 -82.4 0 0 126.27 95.62
  Q 126.06 97.28 126.00 95.48
  A 0.30 0.30 -3.6 0 0 125.67 95.19
  Q 125.22 95.22 125.04 94.75"
/>
<path stroke="#440f81" vector-effect="non-scaling-stroke" d="
  M 97.96 144.00
  C 97.01 145.82 99.25 146.86 98.09 148.39
  A 0.79 0.64 25.8 0 1 97.27 148.58
  Q 94.35 147.61 91.52 148.74
  A 0.78 0.75 -33.4 0 1 90.70 148.59
  L 88.84 146.77"
/>
<path stroke="#2a1274" vector-effect="non-scaling-stroke" d="
  M 148.79 172.00
  L 141.99 171.01
  A 1.55 0.48 2.1 0 1 141.10 170.70
  C 139.34 169.12 141.95 168.03 141.29 167.00"
/>
<path stroke="#270b58" stroke-opacity="0.698" vector-effect="non-scaling-stroke" d="
  M 141.29 167.00
  Q 141.21 166.75 141.29 166.50"
/>
<path stroke="#150e4f" stroke-opacity="0.698" vector-effect="non-scaling-stroke" d="
  M 141.29 167.00
  L 140.00 169.04"
/>
<path stroke="#470b76" stroke-opacity="0.573" vector-effect="non-scaling-stroke" d="
  M 133.00 125.79
  Q 125.49 123.04 117.75 124.99
  Q 105.78 128.01 107.04 140.50"
/>
<path stroke="#3c0d71" stroke-opacity="0.573" vector-effect="non-scaling-stroke" d="
  M 107.04 140.50
  C 106.97 145.33 110.35 147.76 113.27 150.86"
/>
<path stroke="#3c0d71" stroke-opacity="0.573" vector-effect="non-scaling-stroke" d="
  M 124.79 158.14
  Q 124.65 158.92 124.25 159.21"
/>
<path stroke="#2f0e6b" stroke-opacity="0.573" vector-effect="non-scaling-stroke" d="
  M 124.25 159.21
  C 123.66 160.37 123.05 160.96 121.67 161.09
  Q 107.51 162.51 100.46 150.25"
/>
<path stroke="#390d6c" stroke-opacity="0.596" vector-effect="non-scaling-stroke" d="
  M 121.75 142.96
  Q 130.26 143.47 133.54 151.25"
/>
<path stroke="#3d107e" vector-effect="non-scaling-stroke" d="
  M 133.54 151.25
  L 132.77 157.43
  A 1.13 0.78 2.0 0 1 131.69 158.12
  L 127.24 158.16
  A 1.17 0.87 -15.5 0 1 126.44 157.85
  C 125.02 156.27 125.72 160.09 124.25 159.21"
/>
<path stroke="#300b5c" stroke-opacity="0.706" vector-effect="non-scaling-stroke" d="
  M 124.79 158.14
  C 125.98 153.67 123.21 152.45 119.32 151.98
  Q 116.43 151.62 113.27 150.86"
/>
<path stroke="#6f679c" vector-effect="non-scaling-stroke" d="
  M 143.46 150.75
  Q 144.74 158.96 141.29 166.50"
/>
<path stroke="#788889" stroke-opacity="0.698" vector-effect="non-scaling-stroke" d="
  M 141.29 166.50
  C 139.05 162.34 136.34 158.23 136.96 153.25"
/>
<path stroke="#5d6a6a" stroke-opacity="0.706" vector-effect="non-scaling-stroke" d="
  M 137.20 140.08
  L 137.00 145.25"
/>
<path stroke="#300b5c" stroke-opacity="0.706" vector-effect="non-scaling-stroke" d="
  M 121.75 142.96
  Q 115.42 143.01 115.96 136.75"
/>
<path stroke="#95a9aa" vector-effect="non-scaling-stroke" d="
  M 143.21 150.00
  Q 141.48 150.11 141.14 148.68
  A 1.35 1.26 12.7 0 0 140.63 147.93
  C 139.28 146.92 139.24 144.81 137.00 145.25"
/>
<path stroke="#270b58" stroke-opacity="0.698" vector-effect="non-scaling-stroke" d="
  M 134.04 152.75
  C 136.07 169.46 122.96 172.48 110.19 169.56
  Q 97.92 166.76 91.75 155.46"
/>
<path stroke="#8c9f9f" stroke-opacity="0.596" vector-effect="non-scaling-stroke" d="
  M 137.00 145.25
  L 136.96 153.25"
/>
<path stroke="#2d0d66" stroke-opacity="0.596" vector-effect="non-scaling-stroke" d="
  M 134.04 152.75
  Q 133.98 151.94 133.54 151.25"
/>
</g>
<path fill="#010102" fill-opacity="0.055" d="
  M 206.29 52.75
  L 207.05 49.20
  A 0.99 0.76 -64.7 0 0 206.88 48.41
  Q 206.01 47.45 206.50 46.00
  Q 208.00 41.56 207.26 37.34
  C 206.78 34.65 206.59 31.07 204.70 28.19
  C 204.31 27.61 203.77 27.68 203.55 26.74
  A 1.43 0.91 -87.5 0 0 203.10 25.96
  C 199.88 23.59 198.74 21.35 193.99 20.35
  A 0.88 0.69 -61.0 0 0 193.23 20.67
  Q 192.69 21.31 191.79 21.10
  A 1.01 0.73 82.7 0 1 191.19 20.46
  Q 190.70 19.01 189.00 19.00
  C 164.53 18.81 145.72 19.27 126.49 18.52
  A 1.36 0.90 61.0 0 1 125.70 18.11
  C 124.28 16.64 117.36 18.56 115.37 18.58
  Q 90.34 18.74 65.31 18.96
  Q 54.27 19.06 42.21 18.45
  A 0.20 0.20 86.1 0 1 42.03 18.29
  Q 41.78 17.33 41.26 18.07
  A 0.91 0.81 -67.8 0 1 40.50 18.44
  Q 37.04 18.13 34.31 20.30
  Q 32.97 19.68 34.94 18.86
  Q 39.62 16.92 44.75 17.44
  Q 45.24 17.49 45.72 17.30
  C 48.46 16.23 51.48 17.00 53.59 16.98
  C 67.62 16.85 81.01 17.27 95.76 16.88
  C 100.55 16.75 105.60 17.67 110.69 17.53
  C 111.75 17.50 112.94 18.15 114.15 17.10
  A 1.51 1.06 -58.3 0 1 114.99 16.74
  Q 120.00 16.64 124.99 16.87
  C 126.30 16.94 128.14 16.43 129.79 17.05
  Q 130.28 17.24 130.74 17.19
  Q 132.21 17.01 133.69 17.01
  Q 142.34 17.01 151.00 16.90
  Q 166.24 16.71 181.48 16.74
  Q 182.88 16.75 185.39 17.43
  Q 187.34 17.96 189.43 17.85
  A 0.77 0.76 -15.7 0 1 190.15 18.25
  C 192.72 23.10 196.03 15.57 198.79 20.80
  A 0.83 0.53 -8.1 0 0 199.47 21.11
  L 200.28 21.11
  A 1.19 0.56 60.6 0 1 201.04 21.65
  Q 202.16 23.20 203.41 24.65
  C 205.88 27.51 206.80 30.59 207.47 34.19
  A 1.35 0.82 21.0 0 0 208.02 34.90
  Q 208.51 35.23 208.40 35.83
  C 207.21 41.85 209.24 46.15 206.29 52.75
  Z"
/>
<path fill="#010001" fill-opacity="0.106" d="
  M 206.29 52.75
  C 206.71 55.03 204.19 54.76 204.37 57.19
  A 1.26 0.87 71.9 0 1 204.11 58.07
  L 202.86 59.40
  A 1.28 0.82 13.3 0 1 202.01 59.70
  Q 201.36 59.71 201.34 60.19
  A 1.25 0.45 85.7 0 1 201.10 61.06
  Q 200.23 61.88 198.93 61.94
  A 0.55 0.46 -87.6 0 0 198.49 62.43
  C 198.30 64.33 186.89 64.15 188.00 73.25
  C 188.60 78.16 187.82 83.24 187.81 88.14
  Q 187.79 114.20 187.75 140.25
  Q 187.74 143.71 190.89 146.15
  C 192.03 147.02 192.74 148.17 193.81 149.11
  A 0.92 0.53 -26.5 0 0 194.60 149.16
  Q 195.26 148.92 195.96 150.10
  A 2.39 2.39 -13.2 0 0 197.88 151.29
  C 200.03 151.41 201.22 155.52 203.09 156.95
  A 1.70 1.43 14.4 0 1 203.64 157.72
  C 204.33 160.02 206.39 161.06 206.71 163.74
  A 0.97 0.86 12.8 0 0 207.21 164.44
  Q 208.29 165.03 207.90 166.52
  A 1.11 1.10 35.8 0 0 208.05 167.40
  Q 208.87 168.66 208.43 170.03
  Q 208.26 170.56 208.34 170.99
  Q 210.35 182.09 204.58 191.51
  Q 204.55 191.56 202.92 194.82
  C 201.91 196.83 199.94 197.72 198.57 199.36
  A 0.99 0.84 19.9 0 1 197.76 199.66
  Q 196.62 199.55 195.82 200.37
  A 1.56 1.17 -65.4 0 1 195.01 200.81
  C 192.51 201.18 189.94 202.55 187.65 202.70
  Q 176.84 203.44 165.99 202.78
  A 1.99 1.32 54.4 0 1 165.10 202.44
  Q 163.68 201.45 161.80 201.62
  A 0.55 0.33 76.5 0 1 161.39 201.20
  C 161.11 200.16 158.84 201.75 158.96 199.75
  Q 158.92 198.13 157.00 198.75
  Q 156.90 197.14 155.04 197.75
  C 154.39 195.06 151.76 196.17 151.38 195.48
  A 0.68 0.51 67.6 0 0 150.77 195.12
  Q 149.53 195.33 148.97 194.44
  A 1.01 0.60 65.6 0 0 148.25 193.94
  Q 147.84 193.96 147.51 194.24
  A 0.42 0.41 42.3 0 1 147.01 194.26
  Q 146.06 193.57 145.64 194.22
  A 1.21 0.71 -67.5 0 1 144.94 194.75
  Q 141.36 195.24 138.24 197.06
  Q 137.84 197.29 137.30 197.31
  Q 135.81 197.35 134.65 198.19
  A 1.32 1.27 -57.8 0 1 133.76 198.41
  Q 132.11 198.21 130.87 199.18
  A 1.59 1.22 -57.8 0 1 130.00 199.50
  L 112.81 199.44
  A 1.20 0.29 42.0 0 1 112.04 199.02
  C 110.98 198.17 106.41 199.42 106.01 198.30
  A 0.97 0.65 79.9 0 0 105.44 197.71
  C 101.67 196.91 99.94 195.51 95.25 195.72
  A 1.64 1.22 -60.5 0 0 94.39 196.10
  Q 93.48 196.89 92.25 196.99
  A 0.85 0.84 10.5 0 0 91.56 197.46
  C 90.62 199.37 84.40 201.32 82.64 201.62
  C 81.82 201.76 79.86 201.41 79.41 202.28
  A 0.86 0.66 -73.2 0 1 78.75 202.75
  C 77.15 202.77 63.38 203.04 63.19 202.08
  A 0.34 0.27 83.9 0 0 62.91 201.80
  L 57.75 201.74
  A 0.95 0.78 70.7 0 1 57.03 201.30
  C 56.41 200.32 53.36 200.98 53.42 200.59
  A 0.61 0.37 -76.7 0 0 53.22 199.99
  Q 48.77 197.96 46.85 193.31
  Q 45.95 191.16 45.00 189.00
  Q 44.49 187.85 44.25 184.75
  C 42.83 166.47 43.69 147.44 43.68 129.06
  C 43.67 123.64 43.29 118.11 43.42 112.90
  Q 43.99 90.74 43.69 68.56
  A 1.52 1.35 -66.7 0 0 43.39 67.66
  Q 41.63 65.37 38.76 65.05
  C 37.46 64.91 36.05 66.09 34.77 64.41
  A 1.75 0.85 65.8 0 0 34.04 63.80
  L 31.48 62.88
  Q 31.01 62.71 30.68 62.36
  Q 29.82 61.43 28.56 61.24
  A 1.33 1.06 -8.6 0 1 27.76 60.78
  Q 24.25 56.05 24.25 50.50
  Q 24.25 49.12 23.64 48.30
  A 1.80 1.09 36.8 0 1 23.29 47.43
  C 23.05 42.22 22.60 34.59 24.54 29.70
  Q 25.28 27.82 26.06 25.96
  A 0.86 0.67 -76.1 0 1 26.74 25.43
  Q 27.40 25.43 27.64 26.01
  A 0.27 0.26 57.7 0 0 28.07 26.12
  L 28.96 25.25
  Q 29.03 36.25 29.00 47.25
  Q 29.00 48.42 30.50 48.04
  Q 32.07 48.27 31.76 49.07
  A 1.35 0.61 -60.6 0 0 31.68 49.96
  C 34.53 56.97 41.32 57.27 47.53 59.81
  A 0.37 0.36 -75.8 0 0 48.02 59.51
  Q 48.11 58.88 48.51 58.55
  A 0.35 0.28 67.6 0 1 48.98 58.81
  Q 49.16 59.67 49.96 60.00
  L 49.92 184.50
  Q 49.54 194.79 59.06 197.69
  C 65.97 199.79 77.04 200.42 84.19 197.38
  C 89.39 195.17 91.70 190.56 98.27 193.45
  Q 110.17 198.69 123.19 198.31
  Q 133.70 198.01 141.00 193.04
  Q 141.85 192.99 142.54 192.50
  C 148.51 189.03 151.19 190.02 156.52 193.72
  C 164.36 199.17 181.31 201.58 190.25 197.62
  C 193.19 196.31 196.76 194.87 198.78 192.29
  C 207.60 181.03 206.64 164.84 195.19 155.81
  Q 190.18 151.87 187.52 149.58
  C 183.25 145.90 183.32 141.11 183.44 135.69
  Q 183.81 118.01 183.34 71.14
  Q 183.31 67.90 184.44 65.72
  Q 187.26 60.31 192.27 59.58
  Q 195.14 59.16 197.41 57.36
  C 206.48 50.17 206.92 32.48 197.18 26.03
  Q 196.84 25.80 196.25 25.73
  Q 195.09 25.59 194.61 24.54
  A 1.78 0.84 77.9 0 0 194.03 23.78
  C 191.94 22.40 193.13 24.72 193.66 25.24
  Q 194.81 26.36 193.29 27.25
  Q 193.55 26.06 192.75 25.54
  Q 191.28 24.82 191.09 23.37
  A 1.23 1.22 89.4 0 0 190.02 22.32
  Q 186.11 21.87 182.25 21.88
  Q 147.75 21.97 113.25 22.04
  L 108.01 21.97
  L 36.00 21.96
  Q 37.76 20.81 34.31 20.30
  Q 37.04 18.13 40.50 18.44
  A 0.91 0.81 -67.8 0 0 41.26 18.07
  Q 41.78 17.33 42.03 18.29
  A 0.20 0.20 86.1 0 0 42.21 18.45
  Q 54.27 19.06 65.31 18.96
  Q 90.34 18.74 115.37 18.58
  C 117.36 18.56 124.28 16.64 125.70 18.11
  A 1.36 0.90 61.0 0 0 126.49 18.52
  C 145.72 19.27 164.53 18.81 189.00 19.00
  Q 190.70 19.01 191.19 20.46
  A 1.01 0.73 82.7 0 0 191.79 21.10
  Q 192.69 21.31 193.23 20.67
  A 0.88 0.69 -61.0 0 1 193.99 20.35
  C 198.74 21.35 199.88 23.59 203.10 25.96
  A 1.43 0.91 -87.5 0 1 203.55 26.74
  C 203.77 27.68 204.31 27.61 204.70 28.19
  C 206.59 31.07 206.78 34.65 207.26 37.34
  Q 208.00 41.56 206.50 46.00
  Q 206.01 47.45 206.88 48.41
  A 0.99 0.76 -64.7 0 1 207.05 49.20
  L 206.29 52.75
  Z"
/>
<path fill="#bad2d2" d="
  M 36.00 21.96
  L 108.01 21.97
  Q 105.13 34.82 106.21 48.00
  L 97.25 47.96
  C 97.16 44.55 97.00 39.99 94.24 37.78
  Q 91.82 35.84 89.40 38.09
  C 86.89 40.43 87.02 44.73 87.00 47.96
  C 84.50 47.48 85.00 49.03 85.00 50.58
  Q 85.03 76.29 84.96 102.00
  Q 84.84 104.23 83.95 102.99
  Q 83.66 102.57 83.24 102.35
  C 81.27 101.29 81.17 99.42 79.95 98.18
  Q 77.50 95.71 73.75 95.79
  Q 70.28 91.12 64.71 91.27
  C 61.74 91.36 57.99 92.94 61.44 96.56
  Q 68.03 103.49 69.22 112.22
  Q 70.00 117.88 69.75 120.50
  Q 68.62 132.26 69.96 144.00
  Q 67.45 147.24 69.66 150.65
  Q 69.93 151.08 69.98 151.56
  Q 70.38 156.21 72.00 159.75
  C 73.52 163.07 73.94 166.57 75.18 169.40
  Q 78.26 176.38 82.24 182.88
  C 78.39 187.39 67.74 186.08 56.99 186.12
  L 54.50 186.04
  L 53.50 186.04
  C 51.98 185.93 49.67 186.72 49.92 184.50
  L 49.96 60.00
  L 49.96 57.00
  L 50.00 48.65
  A 0.65 0.65 0.0 0 0 49.35 48.00
  L 34.50 48.04
  L 30.50 48.04
  Q 29.00 48.42 29.00 47.25
  Q 29.03 36.25 28.96 25.25
  L 28.99 22.51
  A 0.52 0.51 89.4 0 1 29.49 21.99
  L 36.00 21.96
  Z"
/>
<path fill="#1d136e" d="
  M 108.01 21.97
  L 113.25 22.04
  Q 114.78 23.39 115.54 25.25
  L 116.04 31.75
  L 116.20 47.96
  Q 115.67 50.71 116.24 53.33
  Q 110.14 49.89 107.83 53.80
  Q 106.80 55.54 106.62 60.39
  Q 106.44 64.95 106.29 69.50
  L 106.04 60.86
  Q 106.44 60.10 106.21 59.00
  L 106.21 56.00
  L 106.21 48.00
  Q 105.13 34.82 108.01 21.97
  Z"
/>
<path fill="#bad2d2" d="
  M 113.25 22.04
  Q 147.75 21.97 182.25 21.88
  Q 186.11 21.87 190.02 22.32
  A 1.23 1.22 89.4 0 1 191.09 23.37
  Q 191.28 24.82 192.75 25.54
  L 193.04 29.50
  L 192.98 30.60
  L 193.04 32.50
  Q 193.54 38.69 191.71 44.64
  Q 189.63 47.44 186.62 47.97
  C 183.56 48.52 177.06 48.00 172.88 48.00
  A 0.88 0.88 89.3 0 0 172.00 48.88
  L 172.26 147.51
  L 177.00 148.46
  L 179.71 149.00
  Q 187.93 152.04 192.00 159.79
  Q 193.04 161.50 193.29 163.50
  C 195.33 173.95 191.38 186.28 178.75 186.36
  C 170.02 186.41 164.11 186.71 157.18 182.91
  C 164.44 166.80 164.44 148.91 151.30 135.68
  Q 149.49 133.85 151.98 133.19
  C 160.67 130.90 161.72 124.98 161.79 116.42
  C 161.89 103.65 161.42 90.46 162.42 77.76
  C 163.10 69.22 166.00 49.16 152.54 48.75
  Q 145.78 42.52 143.88 52.28
  Q 142.38 48.46 142.07 44.45
  C 141.64 38.95 140.57 35.59 134.79 34.75
  Q 131.84 27.00 125.47 33.08
  Q 123.27 25.11 115.54 25.25
  Q 114.78 23.39 113.25 22.04
  Z"
/>
<path fill="#000000" fill-opacity="0.192" d="
  M 142.54 192.50
  L 143.34 191.69
  Q 143.73 191.29 143.23 191.50
  C 142.92 191.63 136.85 194.26 138.47 194.26
  A 0.68 0.57 -65.4 0 0 138.93 194.04
  Q 139.76 193.17 141.00 193.04
  Q 133.70 198.01 123.19 198.31
  Q 110.17 198.69 98.27 193.45
  C 91.70 190.56 89.39 195.17 84.19 197.38
  C 77.04 200.42 65.97 199.79 59.06 197.69
  Q 49.54 194.79 49.92 184.50
  C 49.67 186.72 51.98 185.93 53.50 186.04
  Q 53.68 186.76 53.26 187.10
  A 0.67 0.46 -34.6 0 0 53.01 187.76
  Q 55.85 193.85 63.50 195.50
  Q 77.40 198.50 88.12 191.58
  Q 92.12 189.00 96.44 190.81
  C 105.22 194.50 120.83 198.49 129.85 195.38
  C 132.60 194.43 135.62 194.23 138.04 193.21
  C 143.72 190.79 149.06 185.30 154.19 188.56
  Q 157.31 190.55 160.48 192.44
  C 169.31 197.69 185.61 198.09 193.72 191.74
  C 203.45 184.11 202.83 169.35 195.13 160.34
  C 194.30 159.36 192.97 155.80 192.00 159.79
  Q 187.93 152.04 179.71 149.00
  Q 179.59 148.44 180.85 148.16
  Q 182.80 148.70 181.75 147.25
  C 180.90 146.07 180.25 142.15 180.25 140.18
  Q 180.25 104.84 180.27 69.50
  C 180.28 61.87 185.29 58.82 191.79 56.88
  C 194.26 56.14 195.54 54.72 197.33 53.08
  C 199.10 51.47 199.17 49.36 199.76 47.75
  C 201.42 43.19 200.75 37.16 199.02 33.13
  Q 197.49 29.58 193.28 28.53
  Q 196.32 27.24 198.25 31.00
  Q 204.76 43.64 197.07 54.57
  Q 195.25 57.16 192.19 57.63
  A 1.56 1.13 -64.7 0 0 191.39 58.07
  Q 190.74 58.74 189.25 59.25
  Q 181.38 61.92 181.40 71.00
  Q 181.49 106.00 181.56 141.00
  Q 181.56 144.15 182.85 146.99
  A 2.02 1.29 16.2 0 0 183.48 147.71
  Q 185.00 148.77 183.53 149.50
  Q 183.20 149.66 183.56 149.69
  Q 184.49 149.78 185.05 150.51
  A 1.39 0.90 67.6 0 0 185.80 151.03
  Q 188.06 151.43 186.00 150.00
  Q 185.05 149.34 184.06 147.44
  C 182.05 143.54 182.25 140.86 182.25 135.47
  Q 182.26 102.48 182.44 69.50
  C 182.48 63.84 186.40 61.11 191.21 59.17
  Q 194.94 57.67 195.54 57.25
  C 202.82 52.14 204.29 42.48 201.38 34.51
  C 200.37 31.75 199.61 29.82 197.18 28.58
  Q 196.21 28.08 195.65 27.20
  C 194.14 24.81 193.95 29.91 193.29 27.50
  L 193.29 27.25
  Q 194.81 26.36 193.66 25.24
  C 193.13 24.72 191.94 22.40 194.03 23.78
  A 1.78 0.84 77.9 0 1 194.61 24.54
  Q 195.09 25.59 196.25 25.73
  Q 196.84 25.80 197.18 26.03
  C 206.92 32.48 206.48 50.17 197.41 57.36
  Q 195.14 59.16 192.27 59.58
  Q 187.26 60.31 184.44 65.72
  Q 183.31 67.90 183.34 71.14
  Q 183.81 118.01 183.44 135.69
  C 183.32 141.11 183.25 145.90 187.52 149.58
  Q 190.18 151.87 195.19 155.81
  C 206.64 164.84 207.60 181.03 198.78 192.29
  C 196.76 194.87 193.19 196.31 190.25 197.62
  C 181.31 201.58 164.36 199.17 156.52 193.72
  C 151.19 190.02 148.51 189.03 142.54 192.50
  Z"
/>
<path fill="#a4baba" d="
  M 125.47 33.08
  L 124.92 48.03
  L 119.50 47.96
  L 118.57 33.75
  A 1.01 0.91 15.0 0 0 118.08 32.99
  L 116.04 31.75
  L 115.54 25.25
  Q 123.27 25.11 125.47 33.08
  Z"
/>
<path fill="#000001" fill-opacity="0.322" d="
  M 192.75 25.54
  Q 193.55 26.06 193.29 27.25
  L 193.29 27.50
  L 193.28 28.53
  Q 197.49 29.58 199.02 33.13
  C 200.75 37.16 201.42 43.19 199.76 47.75
  C 199.17 49.36 199.10 51.47 197.33 53.08
  C 195.54 54.72 194.26 56.14 191.79 56.88
  C 185.29 58.82 180.28 61.87 180.27 69.50
  Q 180.25 104.84 180.25 140.18
  C 180.25 142.15 180.90 146.07 181.75 147.25
  Q 182.80 148.70 180.85 148.16
  Q 180.45 146.65 179.86 145.18
  Q 179.25 143.62 179.23 142.19
  Q 178.85 109.29 178.98 76.39
  C 179.01 68.11 178.46 63.67 184.06 58.76
  A 1.76 1.43 15.5 0 1 184.93 58.38
  Q 187.28 58.05 189.17 56.62
  A 1.60 1.45 23.9 0 1 190.05 56.33
  Q 191.85 56.32 193.00 54.97
  Q 193.33 54.58 193.77 54.39
  Q 196.07 53.42 197.56 50.31
  Q 202.21 40.65 196.75 31.50
  Q 196.21 30.59 195.44 30.06
  Q 195.13 29.85 194.80 29.80
  A 1.27 0.38 -39.2 0 0 193.95 30.15
  Q 193.32 30.58 193.04 29.50
  L 192.75 25.54
  Z"
/>
<path fill="#000000" fill-opacity="0.192" d="
  M 193.28 28.53
  L 193.29 27.50
  C 193.95 29.91 194.14 24.81 195.65 27.20
  Q 196.21 28.08 197.18 28.58
  C 199.61 29.82 200.37 31.75 201.38 34.51
  C 204.29 42.48 202.82 52.14 195.54 57.25
  Q 194.94 57.67 191.21 59.17
  C 186.40 61.11 182.48 63.84 182.44 69.50
  Q 182.26 102.48 182.25 135.47
  C 182.25 140.86 182.05 143.54 184.06 147.44
  Q 185.05 149.34 186.00 150.00
  Q 188.06 151.43 185.80 151.03
  A 1.39 0.90 67.6 0 1 185.05 150.51
  Q 184.49 149.78 183.56 149.69
  Q 183.20 149.66 183.53 149.50
  Q 185.00 148.77 183.48 147.71
  A 2.02 1.29 16.2 0 1 182.85 146.99
  Q 181.56 144.15 181.56 141.00
  Q 181.49 106.00 181.40 71.00
  Q 181.38 61.92 189.25 59.25
  Q 190.74 58.74 191.39 58.07
  A 1.56 1.13 -64.7 0 1 192.19 57.63
  Q 195.25 57.16 197.07 54.57
  Q 204.76 43.64 198.25 31.00
  Q 196.32 27.24 193.28 28.53
  Z"
/>
<path fill="#000000" fill-opacity="0.369" d="
  M 193.04 29.50
  Q 193.32 30.58 193.95 30.15
  A 1.27 0.38 -39.2 0 1 194.80 29.80
  Q 195.13 29.85 195.44 30.06
  Q 196.21 30.59 196.75 31.50
  Q 202.21 40.65 197.56 50.31
  Q 196.07 53.42 193.77 54.39
  Q 193.33 54.58 193.00 54.97
  Q 191.85 56.32 190.05 56.33
  A 1.60 1.45 23.9 0 0 189.17 56.62
  Q 187.28 58.05 184.93 58.38
  A 1.76 1.43 15.5 0 0 184.06 58.76
  C 178.46 63.67 179.01 68.11 178.98 76.39
  Q 178.85 109.29 179.23 142.19
  Q 179.25 143.62 179.86 145.18
  Q 180.45 146.65 180.85 148.16
  Q 179.59 148.44 179.71 149.00
  L 177.00 148.46
  Q 175.67 146.96 177.96 147.18
  C 178.72 147.28 177.69 138.68 177.69 138.25
  Q 177.75 103.00 177.75 67.75
  A 1.51 0.91 -35.6 0 1 178.12 66.90
  Q 178.40 66.55 178.44 66.19
  Q 179.15 59.11 185.75 56.74
  Q 192.99 54.14 194.00 53.00
  Q 201.14 44.90 196.94 34.81
  Q 196.64 34.11 195.91 33.30
  Q 195.62 32.98 195.41 32.46
  Q 194.79 30.94 192.98 30.60
  L 193.04 29.50
  Z"
/>
<path fill="#241272" d="
  M 134.79 34.75
  L 134.79 37.50
  L 135.00 47.79
  L 134.96 66.00
  L 134.12 58.24
  A 0.49 0.45 -10.5 0 0 133.52 57.87
  Q 131.27 58.37 128.98 58.30
  C 127.69 58.27 125.40 56.65 125.42 59.69
  Q 125.42 59.97 125.38 59.68
  L 125.04 57.25
  L 124.96 57.00
  L 124.96 55.00
  L 124.92 48.03
  L 125.47 33.08
  Q 131.84 27.00 134.79 34.75
  Z"
/>
<path fill="#000001" fill-opacity="0.412" d="
  M 192.98 30.60
  Q 194.79 30.94 195.41 32.46
  Q 195.62 32.98 195.91 33.30
  Q 196.64 34.11 196.94 34.81
  Q 201.14 44.90 194.00 53.00
  Q 192.99 54.14 185.75 56.74
  Q 179.15 59.11 178.44 66.19
  Q 178.40 66.55 178.12 66.90
  A 1.51 0.91 -35.6 0 0 177.75 67.75
  Q 177.75 103.00 177.69 138.25
  C 177.69 138.68 178.72 147.28 177.96 147.18
  Q 176.75 142.68 176.75 138.75
  Q 176.75 105.50 176.60 72.25
  Q 176.57 66.52 178.65 61.48
  Q 179.55 59.31 181.54 58.07
  Q 185.17 55.82 189.07 54.14
  C 192.86 52.50 194.26 51.44 195.94 47.94
  Q 199.42 40.69 195.28 34.42
  Q 195.03 34.04 194.97 33.50
  Q 194.74 31.70 193.04 32.50
  L 192.98 30.60
  Z"
/>
<path fill="#738082" d="
  M 116.04 31.75
  L 118.08 32.99
  A 1.01 0.91 15.0 0 1 118.57 33.75
  L 119.50 47.96
  L 116.20 47.96
  L 116.04 31.75
  Z"
/>
<path fill="#000000" fill-opacity="0.541" d="
  M 177.96 147.18
  Q 175.67 146.96 177.00 148.46
  L 172.26 147.51
  L 172.75 60.49
  A 1.06 0.12 -55.9 0 1 173.16 59.71
  L 176.59 54.42
  Q 176.79 54.11 177.01 53.99
  C 179.77 52.49 181.48 51.24 184.82 50.21
  Q 189.25 48.85 191.71 44.64
  Q 193.54 38.69 193.04 32.50
  Q 194.74 31.70 194.97 33.50
  Q 195.03 34.04 195.28 34.42
  Q 199.42 40.69 195.94 47.94
  C 194.26 51.44 192.86 52.50 189.07 54.14
  Q 185.17 55.82 181.54 58.07
  Q 179.55 59.31 178.65 61.48
  Q 176.57 66.52 176.60 72.25
  Q 176.75 105.50 176.75 138.75
  Q 176.75 142.68 177.96 147.18
  Z"
/>
<path fill="#a4baba" d="
  M 134.79 34.75
  C 140.57 35.59 141.64 38.95 142.07 44.45
  Q 142.38 48.46 143.88 52.28
  L 144.04 75.75
  L 144.04 92.75
  L 143.75 109.01
  A 0.72 0.71 -78.1 0 1 142.76 109.66
  L 138.75 107.96
  Q 138.92 103.57 139.23 99.20
  C 140.30 83.68 139.18 67.84 139.64 52.26
  C 139.75 48.41 139.72 38.34 134.79 37.50
  L 134.79 34.75
  Z"
/>
<path fill="#2a1274" d="
  M 97.25 47.96
  L 96.96 57.50
  Q 97.20 60.93 96.14 59.94
  A 1.25 1.05 62.5 0 0 95.32 59.60
  L 89.29 59.77
  A 1.83 1.83 1.7 0 0 87.51 61.44
  L 87.04 67.00
  L 86.96 58.50
  L 87.00 47.96
  C 87.02 44.73 86.89 40.43 89.40 38.09
  Q 91.82 35.84 94.24 37.78
  C 97.00 39.99 97.16 44.55 97.25 47.96
  Z"
/>
<path fill="#839595" d="
  M 138.75 107.96
  Q 137.51 107.91 136.71 107.00
  L 136.96 82.75
  L 136.94 48.82
  A 0.73 0.60 -84.6 0 0 136.47 48.13
  L 135.00 47.79
  L 134.79 37.50
  C 139.72 38.34 139.75 48.41 139.64 52.26
  C 139.18 67.84 140.30 83.68 139.23 99.20
  Q 138.92 103.57 138.75 107.96
  Z"
/>
<path fill="#000001" fill-opacity="0.694" d="
  M 191.71 44.64
  Q 189.25 48.85 184.82 50.21
  C 181.48 51.24 179.77 52.49 177.01 53.99
  Q 176.79 54.11 176.59 54.42
  L 173.16 59.71
  A 1.06 0.12 -55.9 0 0 172.75 60.49
  L 172.26 147.51
  L 172.00 48.88
  A 0.88 0.88 88.0 0 1 172.88 48.00
  C 177.06 48.00 183.56 48.52 186.62 47.97
  Q 189.63 47.44 191.71 44.64
  Z"
/>
<path fill="#36107a" d="
  M 152.54 48.75
  L 153.79 54.50
  L 154.04 57.25
  L 153.21 78.00
  Q 153.23 76.76 152.57 75.87
  A 1.30 1.04 -9.4 0 0 151.77 75.42
  Q 147.87 74.80 144.04 75.75
  L 143.88 52.28
  Q 145.78 42.52 152.54 48.75
  Z"
/>
<path fill="#030402" fill-opacity="0.992" d="
  M 135.00 47.79
  L 136.47 48.13
  A 0.73 0.60 -84.6 0 1 136.94 48.82
  L 136.96 82.75
  Q 136.66 82.60 136.71 82.25
  L 136.71 66.00
  C 136.73 64.93 137.32 56.46 135.94 57.01
  A 0.85 0.73 81.8 0 0 135.48 57.74
  C 135.09 66.45 136.21 75.17 134.79 82.75
  L 134.96 66.00
  L 135.00 47.79
  Z"
/>
<path fill="#000000" fill-opacity="0.369" d="
  M 30.50 48.04
  L 34.50 48.04
  Q 34.80 49.72 36.26 50.15
  A 1.34 1.12 -4.1 0 1 37.00 50.68
  C 39.08 54.02 43.65 54.93 47.13 56.12
  A 0.90 0.60 30.8 0 0 47.86 56.08
  L 48.17 55.86
  A 0.37 0.35 -32.4 0 1 48.70 55.96
  Q 49.11 56.71 49.96 57.00
  L 49.96 60.00
  Q 49.16 59.67 48.98 58.81
  A 0.35 0.28 67.6 0 0 48.51 58.55
  Q 48.11 58.88 48.02 59.51
  A 0.37 0.36 -75.8 0 1 47.53 59.81
  C 41.32 57.27 34.53 56.97 31.68 49.96
  A 1.35 0.61 -60.6 0 1 31.76 49.07
  Q 32.07 48.27 30.50 48.04
  Z"
/>
<path fill="#020202" fill-opacity="0.604" d="
  M 34.50 48.04
  L 49.35 48.00
  A 0.65 0.65 0.0 0 1 50.00 48.65
  L 49.96 57.00
  Q 49.11 56.71 48.70 55.96
  A 0.37 0.35 -32.4 0 0 48.17 55.86
  L 47.86 56.08
  A 0.90 0.60 30.8 0 1 47.13 56.12
  C 43.65 54.93 39.08 54.02 37.00 50.68
  A 1.34 1.12 -4.1 0 0 36.26 50.15
  Q 34.80 49.72 34.50 48.04
  Z"
/>
<path fill="#050605" fill-opacity="0.855" d="
  M 87.00 47.96
  L 86.96 58.50
  Q 86.01 55.00 85.97 58.25
  C 85.78 74.76 85.52 90.25 85.85 107.80
  Q 86.19 126.16 85.15 144.51
  L 84.96 102.00
  Q 85.03 76.29 85.00 50.58
  C 85.00 49.03 84.50 47.48 87.00 47.96
  Z"
/>
<path fill="#000001" fill-opacity="0.639" d="
  M 97.25 47.96
  L 106.21 48.00
  L 106.21 56.00
  L 105.50 53.96
  A 0.46 0.29 69.9 0 0 105.06 53.62
  Q 104.83 53.71 104.74 53.94
  A 1.25 0.46 -75.0 0 1 104.24 54.65
  Q 99.77 56.91 98.81 61.90
  A 0.80 0.43 -88.0 0 1 98.48 62.46
  C 97.99 62.66 98.46 60.83 98.13 60.79
  A 0.65 0.35 -87.7 0 0 97.74 61.46
  L 97.35 113.50
  L 96.96 86.75
  L 96.96 57.50
  L 97.25 47.96
  Z"
/>
<path fill="#000001" fill-opacity="0.694" d="
  M 116.20 47.96
  L 119.50 47.96
  L 124.92 48.03
  L 124.96 55.00
  L 124.29 51.80
  A 0.63 0.59 83.7 0 0 123.69 51.29
  Q 122.00 51.33 121.45 52.84
  A 1.25 1.16 -4.8 0 1 120.85 53.50
  C 119.06 54.42 119.97 56.80 117.31 56.84
  A 0.59 0.51 1.5 0 0 116.74 57.31
  L 116.04 64.50
  L 116.24 53.33
  Q 115.67 50.71 116.20 47.96
  Z"
/>
<path fill="#a7bdbe" d="
  M 152.54 48.75
  C 166.00 49.16 163.10 69.22 162.42 77.76
  C 161.42 90.46 161.89 103.65 161.79 116.42
  C 161.72 124.98 160.67 130.90 151.98 133.19
  Q 149.49 133.85 151.30 135.68
  C 164.44 148.91 164.44 166.80 157.18 182.91
  L 155.25 182.21
  C 161.18 171.27 162.61 157.45 156.71 146.25
  Q 154.60 142.22 151.31 137.94
  Q 148.91 134.81 145.75 134.29
  Q 141.79 129.96 136.78 127.08
  L 137.00 124.25
  C 141.25 123.85 143.70 126.34 146.76 127.13
  Q 150.05 127.97 153.50 127.75
  A 2.61 2.11 10.3 0 0 155.44 126.69
  C 158.09 122.29 157.76 119.28 157.73 113.02
  Q 157.65 96.73 157.93 80.44
  Q 157.94 80.13 158.25 79.55
  Q 158.46 79.16 158.36 78.67
  Q 158.21 77.98 158.23 77.69
  Q 158.37 75.87 158.33 74.06
  C 158.25 70.25 159.83 54.28 153.79 54.50
  L 152.54 48.75
  Z"
/>
<path fill="#000001" fill-opacity="0.502" d="
  M 124.96 55.00
  L 124.96 57.00
  Q 124.64 56.39 124.12 56.04
  A 0.61 0.50 -53.2 0 0 123.39 56.22
  Q 122.63 57.16 121.47 57.60
  A 1.33 0.87 -6.5 0 0 120.77 58.18
  L 118.17 64.03
  Q 117.95 64.52 117.67 64.12
  L 117.06 63.25
  Q 116.81 62.90 116.80 63.32
  L 115.93 102.51
  L 116.04 64.50
  L 116.74 57.31
  A 0.59 0.51 1.5 0 1 117.31 56.84
  C 119.97 56.80 119.06 54.42 120.85 53.50
  A 1.25 1.16 -4.8 0 0 121.45 52.84
  Q 122.00 51.33 123.69 51.29
  A 0.63 0.59 83.7 0 1 124.29 51.80
  L 124.96 55.00
  Z"
/>
<path fill="#440f81" d="
  M 116.24 53.33
  L 116.04 64.50
  L 115.93 102.51
  L 115.63 105.59
  Q 115.50 97.52 114.09 89.75
  A 0.62 0.61 85.9 0 0 113.51 89.24
  C 109.83 89.11 106.50 88.46 106.51 93.43
  Q 106.52 97.21 106.46 101.00
  L 106.29 69.50
  Q 106.44 64.95 106.62 60.39
  Q 106.80 55.54 107.83 53.80
  Q 110.14 49.89 116.24 53.33
  Z"
/>
<path fill="#000001" fill-opacity="0.412" d="
  M 106.21 56.00
  L 106.21 59.00
  Q 104.90 58.30 104.72 59.68
  A 0.81 0.78 84.7 0 1 104.21 60.32
  C 101.38 61.30 100.75 66.82 100.75 69.00
  Q 100.72 89.88 100.79 110.75
  Q 99.26 112.12 100.75 112.29
  L 98.62 113.92
  A 1.28 0.58 -44.8 0 1 97.74 114.25
  Q 97.22 114.15 97.35 113.50
  L 97.74 61.46
  A 0.65 0.35 -87.7 0 1 98.13 60.79
  C 98.46 60.83 97.99 62.66 98.48 62.46
  A 0.80 0.43 -88.0 0 0 98.81 61.90
  Q 99.77 56.91 104.24 54.65
  A 1.25 0.46 -75.0 0 0 104.74 53.94
  Q 104.83 53.71 105.06 53.62
  A 0.46 0.29 69.9 0 1 105.50 53.96
  L 106.21 56.00
  Z"
/>
<path fill="#839595" d="
  M 153.79 54.50
  C 159.83 54.28 158.25 70.25 158.33 74.06
  Q 158.37 75.87 158.23 77.69
  Q 158.21 77.98 158.36 78.67
  Q 158.46 79.16 158.25 79.55
  Q 157.94 80.13 157.93 80.44
  Q 157.65 96.73 157.73 113.02
  C 157.76 119.28 158.09 122.29 155.44 126.69
  A 2.61 2.11 10.3 0 1 153.50 127.75
  Q 150.05 127.97 146.76 127.13
  C 143.70 126.34 141.25 123.85 137.00 124.25
  L 137.04 122.04
  Q 142.68 122.40 147.45 125.12
  C 157.51 130.85 155.52 116.23 155.64 111.75
  Q 156.02 97.61 156.01 83.47
  C 156.01 77.80 156.80 70.28 156.41 63.59
  C 156.28 61.23 157.71 58.28 154.04 57.25
  L 153.79 54.50
  Z"
/>
<path fill="#000000" fill-opacity="0.369" d="
  M 124.96 57.00
  L 125.04 57.25
  L 124.96 63.00
  Q 124.62 62.04 124.71 61.00
  Q 124.47 56.55 123.17 60.04
  A 1.19 0.86 -6.0 0 1 122.52 60.62
  C 120.34 61.47 119.71 67.17 119.70 68.75
  Q 119.57 86.13 119.25 103.50
  Q 119.95 104.18 118.70 104.95
  Q 120.20 106.42 122.75 105.79
  Q 119.54 106.47 115.63 105.59
  L 115.93 102.51
  L 116.80 63.32
  Q 116.81 62.90 117.06 63.25
  L 117.67 64.12
  Q 117.95 64.52 118.17 64.03
  L 120.77 58.18
  A 1.33 0.87 -6.5 0 1 121.47 57.60
  Q 122.63 57.16 123.39 56.22
  A 0.61 0.50 -53.2 0 1 124.12 56.04
  Q 124.64 56.39 124.96 57.00
  Z"
/>
<path fill="#020202" fill-opacity="0.604" d="
  M 86.96 58.50
  L 87.04 67.00
  Q 86.75 70.36 87.56 77.94
  Q 87.94 81.50 87.79 98.50
  L 88.04 122.50
  Q 87.44 134.68 88.84 146.77
  L 91.75 155.46
  Q 91.15 155.29 90.67 154.90
  Q 90.30 154.61 90.32 155.07
  L 90.81 167.83
  Q 90.84 168.66 90.29 168.04
  Q 89.19 166.82 89.71 168.50
  Q 86.19 165.10 84.88 160.58
  L 85.15 144.51
  Q 86.19 126.16 85.85 107.80
  C 85.52 90.25 85.78 74.76 85.97 58.25
  Q 86.01 55.00 86.96 58.50
  Z"
/>
<path fill="#000000" fill-opacity="0.541" d="
  M 136.71 66.00
  C 136.66 65.71 135.96 55.93 135.74 61.50
  Q 135.33 71.97 135.55 82.44
  A 0.50 0.40 83.0 0 0 136.06 82.93
  Q 136.50 82.82 136.71 82.25
  Q 136.66 82.60 136.96 82.75
  L 136.71 107.00
  Q 134.97 107.04 134.08 105.26
  C 134.21 96.59 132.95 86.73 134.54 83.00
  Q 134.75 82.96 134.79 82.75
  C 136.21 75.17 135.09 66.45 135.48 57.74
  A 0.85 0.73 81.8 0 1 135.94 57.01
  C 137.32 56.46 136.73 64.93 136.71 66.00
  Z"
/>
<path fill="#3f0f7e" d="
  M 125.04 57.25
  L 125.38 59.68
  Q 125.42 59.97 125.42 59.69
  C 125.40 56.65 127.69 58.27 128.98 58.30
  Q 131.27 58.37 133.52 57.87
  A 0.49 0.45 -10.5 0 1 134.12 58.24
  L 134.96 66.00
  L 134.79 82.75
  Q 134.75 82.96 134.54 83.00
  L 134.44 78.06
  Q 134.39 75.70 132.81 75.81
  L 128.06 76.16
  A 1.02 0.84 65.6 0 1 127.28 75.78
  Q 126.87 75.25 126.63 75.49
  A 0.43 0.34 -47.0 0 1 126.11 75.57
  Q 125.38 74.93 125.04 76.75
  L 124.96 63.00
  L 125.04 57.25
  Z"
/>
<path fill="#6c7b7b" d="
  M 154.04 57.25
  C 157.71 58.28 156.28 61.23 156.41 63.59
  C 156.80 70.28 156.01 77.80 156.01 83.47
  Q 156.02 97.61 155.64 111.75
  C 155.52 116.23 157.51 130.85 147.45 125.12
  Q 142.68 122.40 137.04 122.04
  L 137.00 117.04
  C 141.70 118.56 152.04 126.39 152.75 116.00
  Q 152.99 112.55 153.16 94.14
  L 153.21 78.00
  L 154.04 57.25
  Z"
/>
<path fill="#440f81" d="
  M 96.96 57.50
  L 96.96 86.75
  Q 96.59 90.04 96.05 88.05
  A 0.46 0.46 74.4 0 0 95.47 87.72
  Q 92.95 88.54 90.31 88.15
  A 0.73 0.68 18.0 0 0 89.57 88.50
  Q 87.72 92.02 88.25 95.75
  Q 88.49 97.45 87.79 98.50
  Q 87.94 81.50 87.56 77.94
  Q 86.75 70.36 87.04 67.00
  L 87.51 61.44
  A 1.83 1.83 1.7 0 1 89.29 59.77
  L 95.32 59.60
  A 1.25 1.05 62.5 0 1 96.14 59.94
  Q 97.20 60.93 96.96 57.50
  Z"
/>
<path fill="#000000" fill-opacity="0.243" d="
  M 106.21 59.00
  Q 106.44 60.10 106.04 60.86
  Q 102.46 65.40 102.50 69.50
  Q 102.68 88.13 102.26 106.75
  Q 102.25 107.20 102.50 107.68
  Q 103.62 109.89 100.79 110.75
  Q 100.72 89.88 100.75 69.00
  C 100.75 66.82 101.38 61.30 104.21 60.32
  A 0.81 0.78 84.7 0 0 104.72 59.68
  Q 104.90 58.30 106.21 59.00
  Z"
/>
<path fill="#000000" fill-opacity="0.243" d="
  M 124.71 61.00
  C 123.63 58.47 123.33 61.52 123.37 62.06
  Q 123.52 64.03 122.21 65.54
  Q 120.99 66.95 121.00 68.82
  Q 121.07 85.84 120.82 102.93
  C 120.80 104.36 121.02 104.90 118.70 104.95
  Q 119.95 104.18 119.25 103.50
  Q 119.57 86.13 119.70 68.75
  C 119.71 67.17 120.34 61.47 122.52 60.62
  A 1.19 0.86 -6.0 0 0 123.17 60.04
  Q 124.47 56.55 124.71 61.00
  Z"
/>
<path fill="#000000" fill-opacity="0.192" d="
  M 136.71 66.00
  L 136.71 82.25
  Q 136.50 82.82 136.06 82.93
  A 0.50 0.40 83.0 0 1 135.55 82.44
  Q 135.33 71.97 135.74 61.50
  C 135.96 55.93 136.66 65.71 136.71 66.00
  Z"
/>
<path fill="#000001" fill-opacity="0.141" d="
  M 124.71 61.00
  Q 124.62 62.04 124.96 63.00
  L 125.04 76.75
  L 125.04 94.75
  L 124.95 104.44
  A 0.85 0.65 83.6 0 1 124.50 105.19
  L 122.75 105.79
  Q 120.20 106.42 118.70 104.95
  C 121.02 104.90 120.80 104.36 120.82 102.93
  Q 121.07 85.84 121.00 68.82
  Q 120.99 66.95 122.21 65.54
  Q 123.52 64.03 123.37 62.06
  C 123.33 61.52 123.63 58.47 124.71 61.00
  Z"
/>
<path fill="#010001" fill-opacity="0.106" d="
  M 106.04 60.86
  L 106.29 69.50
  L 106.46 101.00
  Q 105.95 103.98 106.58 105.64
  Q 107.44 107.91 105.52 109.16
  L 100.75 112.29
  Q 99.26 112.12 100.79 110.75
  Q 103.62 109.89 102.50 107.68
  Q 102.25 107.20 102.26 106.75
  Q 102.68 88.13 102.50 69.50
  Q 102.46 65.40 106.04 60.86
  Z"
/>
<path fill="#510d87" d="
  M 153.21 78.00
  L 153.16 94.14
  Q 149.80 92.02 145.20 93.42
  Q 144.69 93.58 144.85 93.07
  Q 145.04 92.46 144.04 92.75
  L 144.04 75.75
  Q 147.87 74.80 151.77 75.42
  A 1.30 1.04 -9.4 0 1 152.57 75.87
  Q 153.23 76.76 153.21 78.00
  Z"
/>
<path fill="#510d87" d="
  M 134.54 83.00
  C 132.95 86.73 134.21 96.59 134.08 105.26
  Q 134.05 100.09 133.04 95.06
  A 0.43 0.43 -15.9 0 0 132.47 94.75
  Q 130.14 95.58 126.90 95.13
  A 0.56 0.55 -82.4 0 0 126.27 95.62
  Q 126.06 97.28 126.00 95.48
  A 0.30 0.30 -3.6 0 0 125.67 95.19
  Q 125.22 95.22 125.04 94.75
  L 125.04 76.75
  Q 125.38 74.93 126.11 75.57
  A 0.43 0.34 -47.0 0 0 126.63 75.49
  Q 126.87 75.25 127.28 75.78
  A 1.02 0.84 65.6 0 0 128.06 76.16
  L 132.81 75.81
  Q 134.39 75.70 134.44 78.06
  L 134.54 83.00
  Z"
/>
<path fill="#5f0c8e" d="
  M 96.96 86.75
  L 97.35 113.50
  Q 97.22 114.15 97.74 114.25
  A 1.28 0.58 -44.8 0 0 98.62 113.92
  L 100.75 112.29
  L 105.52 109.16
  Q 107.44 107.91 106.58 105.64
  Q 105.95 103.98 106.46 101.00
  Q 106.52 97.21 106.51 93.43
  C 106.50 88.46 109.83 89.11 113.51 89.24
  A 0.62 0.61 85.9 0 1 114.09 89.75
  Q 115.50 97.52 115.63 105.59
  Q 119.54 106.47 122.75 105.79
  L 124.50 105.19
  A 0.85 0.65 83.6 0 0 124.95 104.44
  L 125.04 94.75
  Q 125.22 95.22 125.67 95.19
  A 0.30 0.30 -3.6 0 1 126.00 95.48
  Q 126.06 97.28 126.27 95.62
  A 0.56 0.55 -82.4 0 1 126.90 95.13
  Q 130.14 95.58 132.47 94.75
  A 0.43 0.43 -15.9 0 1 133.04 95.06
  Q 134.05 100.09 134.08 105.26
  Q 134.97 107.04 136.71 107.00
  Q 137.51 107.91 138.75 107.96
  L 142.76 109.66
  A 0.72 0.71 -78.1 0 0 143.75 109.01
  L 144.04 92.75
  Q 145.04 92.46 144.85 93.07
  Q 144.69 93.58 145.20 93.42
  Q 149.80 92.02 153.16 94.14
  Q 152.99 112.55 152.75 116.00
  C 152.04 126.39 141.70 118.56 137.00 117.04
  C 124.62 112.57 108.26 114.51 100.71 126.50
  L 98.36 128.28
  A 0.93 0.49 25.3 0 1 97.63 128.31
  Q 97.22 128.18 97.17 128.69
  Q 97.14 129.01 96.97 128.74
  C 96.15 127.47 91.47 128.02 90.06 128.14
  A 0.59 0.50 78.9 0 1 89.51 127.70
  L 88.04 122.50
  L 87.79 98.50
  Q 88.49 97.45 88.25 95.75
  Q 87.72 92.02 89.57 88.50
  A 0.73 0.68 18.0 0 1 90.31 88.15
  Q 92.95 88.54 95.47 87.72
  A 0.46 0.46 74.4 0 1 96.05 88.05
  Q 96.59 90.04 96.96 86.75
  Z"
/>
<path fill="#5a0c8c" d="
  M 73.75 95.79
  Q 77.02 100.81 77.79 106.75
  C 79.20 118.98 77.80 131.05 79.25 143.35
  Q 76.91 147.41 71.70 146.01
  Q 70.83 145.77 70.50 146.54
  L 69.96 144.00
  Q 68.62 132.26 69.75 120.50
  Q 70.00 117.88 69.22 112.22
  Q 68.03 103.49 61.44 96.56
  C 57.99 92.94 61.74 91.36 64.71 91.27
  Q 70.28 91.12 73.75 95.79
  Z"
/>
<path fill="#96aaa9" d="
  M 73.75 95.79
  Q 77.50 95.71 79.95 98.18
  C 81.17 99.42 81.27 101.29 83.24 102.35
  Q 83.66 102.57 83.95 102.99
  Q 84.84 104.23 84.96 102.00
  L 85.15 144.51
  L 84.88 160.58
  Q 82.45 158.49 82.19 155.26
  C 82.34 151.12 83.95 104.68 77.79 106.75
  Q 77.02 100.81 73.75 95.79
  Z"
/>
<path fill="#738082" d="
  M 82.19 155.26
  Q 79.59 149.35 79.25 143.35
  C 77.80 131.05 79.20 118.98 77.79 106.75
  C 83.95 104.68 82.34 151.12 82.19 155.26
  Z"
/>
<path fill="#000000" fill-opacity="0.467" d="
  M 137.00 117.04
  L 137.04 122.04
  L 137.00 124.25
  Q 137.34 121.54 135.44 121.44
  C 132.22 121.26 129.48 119.93 126.79 119.92
  Q 117.15 119.90 109.59 125.65
  Q 106.50 127.99 105.35 129.30
  C 101.87 133.26 100.31 139.81 100.25 144.50
  Q 100.23 145.75 99.55 146.00
  A 0.59 0.57 79.6 0 0 99.18 146.56
  L 99.21 147.75
  L 97.96 144.00
  Q 95.50 134.56 100.71 126.50
  C 108.26 114.51 124.62 112.57 137.00 117.04
  Z"
/>
<path fill="#000001" fill-opacity="0.322" d="
  M 137.00 124.25
  L 136.78 127.08
  L 133.00 125.79
  Q 135.44 125.56 133.34 124.64
  C 130.81 123.52 128.44 123.36 125.16 122.85
  C 122.86 122.49 120.64 123.40 118.61 123.59
  C 112.90 124.15 108.68 128.26 105.77 133.16
  C 105.15 134.21 103.77 135.61 103.40 137.26
  C 102.34 141.99 101.20 145.48 102.65 150.44
  C 102.79 150.89 102.75 153.49 101.81 151.07
  Q 101.23 149.54 100.46 150.25
  Q 99.54 149.14 99.21 147.75
  L 99.18 146.56
  A 0.59 0.57 79.6 0 1 99.55 146.00
  Q 100.23 145.75 100.25 144.50
  C 100.31 139.81 101.87 133.26 105.35 129.30
  Q 106.50 127.99 109.59 125.65
  Q 117.15 119.90 126.79 119.92
  C 129.48 119.93 132.22 121.26 135.44 121.44
  Q 137.34 121.54 137.00 124.25
  Z"
/>
<path fill="#510d87" d="
  M 88.04 122.50
  L 89.51 127.70
  A 0.59 0.50 78.9 0 0 90.06 128.14
  C 91.47 128.02 96.15 127.47 96.97 128.74
  Q 97.14 129.01 97.17 128.69
  Q 97.22 128.18 97.63 128.31
  A 0.93 0.49 25.3 0 0 98.36 128.28
  L 100.71 126.50
  Q 95.50 134.56 97.96 144.00
  C 97.01 145.82 99.25 146.86 98.09 148.39
  A 0.79 0.64 25.8 0 1 97.27 148.58
  Q 94.35 147.61 91.52 148.74
  A 0.78 0.75 -33.4 0 1 90.70 148.59
  L 88.84 146.77
  Q 87.44 134.68 88.04 122.50
  Z"
/>
<path fill="#000001" fill-opacity="0.141" d="
  M 133.00 125.79
  Q 125.49 123.04 117.75 124.99
  Q 105.78 128.01 107.04 140.50
  C 106.97 145.33 110.35 147.76 113.27 150.86
  Q 116.18 158.88 124.79 158.14
  Q 124.65 158.92 124.25 159.21
  C 123.66 160.37 123.05 160.96 121.67 161.09
  Q 107.51 162.51 100.46 150.25
  Q 101.23 149.54 101.81 151.07
  C 102.75 153.49 102.79 150.89 102.65 150.44
  C 101.20 145.48 102.34 141.99 103.40 137.26
  C 103.77 135.61 105.15 134.21 105.77 133.16
  C 108.68 128.26 112.90 124.15 118.61 123.59
  C 120.64 123.40 122.86 122.49 125.16 122.85
  C 128.44 123.36 130.81 123.52 133.34 124.64
  Q 135.44 125.56 133.00 125.79
  Z"
/>
<path fill="#510d87" d="
  M 133.00 125.79
  L 136.78 127.08
  Q 141.79 129.96 145.75 134.29
  L 150.25 141.29
  L 152.00 146.29
  L 152.21 148.25
  Q 151.54 148.60 151.47 149.24
  A 0.65 0.46 -86.5 0 1 151.00 149.82
  L 144.70 149.98
  A 1.26 0.60 6.7 0 0 143.83 150.28
  L 143.46 150.75
  Q 143.13 150.49 143.21 150.00
  Q 141.91 143.97 137.20 140.08
  C 135.61 136.52 127.60 133.94 124.08 133.33
  Q 118.76 132.42 115.96 136.75
  L 115.06 140.45
  A 0.35 0.35 24.0 0 1 114.53 140.65
  Q 112.52 139.38 110.16 140.04
  Q 109.79 140.14 109.35 140.55
  Q 108.25 141.58 107.04 140.50
  Q 105.78 128.01 117.75 124.99
  Q 125.49 123.04 133.00 125.79
  Z"
/>
<path fill="#000001" fill-opacity="0.412" d="
  M 137.20 140.08
  L 137.00 145.25
  Q 136.49 146.00 136.05 145.65
  A 0.59 0.54 47.6 0 0 135.39 145.59
  Q 134.73 146.01 133.94 145.06
  Q 130.92 141.46 124.82 142.16
  Q 124.18 142.24 123.56 142.08
  Q 121.14 141.46 121.75 142.96
  Q 115.42 143.01 115.96 136.75
  Q 118.76 132.42 124.08 133.33
  C 127.60 133.94 135.61 136.52 137.20 140.08
  Z"
/>
<path fill="#a7bdbe" d="
  M 145.75 134.29
  Q 148.91 134.81 151.31 137.94
  Q 154.60 142.22 156.71 146.25
  C 162.61 157.45 161.18 171.27 155.25 182.21
  Q 154.97 182.16 154.75 181.96
  C 155.28 178.98 157.14 176.84 157.77 174.24
  C 160.14 164.58 160.52 153.80 155.25 145.25
  Q 154.63 142.96 153.05 141.31
  Q 152.20 140.41 152.68 141.55
  Q 153.59 143.70 155.25 145.25
  Q 157.85 150.88 158.41 157.02
  Q 157.52 151.77 154.89 147.20
  Q 154.17 143.00 150.25 141.29
  L 145.75 134.29
  Z"
/>
<path fill="#440f81" d="
  M 115.96 136.75
  Q 115.42 143.01 121.75 142.96
  Q 130.26 143.47 133.54 151.25
  L 132.77 157.43
  A 1.13 0.78 2.0 0 1 131.69 158.12
  L 127.24 158.16
  A 1.17 0.87 -15.5 0 1 126.44 157.85
  C 125.02 156.27 125.72 160.09 124.25 159.21
  Q 124.65 158.92 124.79 158.14
  C 125.98 153.67 123.21 152.45 119.32 151.98
  Q 116.43 151.62 113.27 150.86
  C 110.35 147.76 106.97 145.33 107.04 140.50
  Q 108.25 141.58 109.35 140.55
  Q 109.79 140.14 110.16 140.04
  Q 112.52 139.38 114.53 140.65
  A 0.35 0.35 24.0 0 0 115.06 140.45
  L 115.96 136.75
  Z"
/>
<path fill="#839595" d="
  M 137.20 140.08
  Q 141.91 143.97 143.21 150.00
  Q 141.48 150.11 141.14 148.68
  A 1.35 1.26 12.7 0 0 140.63 147.93
  C 139.28 146.92 139.24 144.81 137.00 145.25
  L 137.20 140.08
  Z"
/>
<path fill="#a4baba" d="
  M 155.25 145.25
  Q 153.59 143.70 152.68 141.55
  Q 152.20 140.41 153.05 141.31
  Q 154.63 142.96 155.25 145.25
  Z"
/>
<path fill="#96aaa9" d="
  M 150.25 141.29
  Q 154.17 143.00 154.89 147.20
  Q 154.62 149.20 156.07 150.71
  A 2.02 1.31 26.9 0 1 156.55 151.54
  Q 159.72 165.19 154.44 178.04
  Q 154.25 178.51 154.52 178.08
  Q 157.74 172.90 157.99 166.75
  Q 157.99 166.51 158.33 165.88
  C 158.81 164.95 158.48 160.57 158.54 157.25
  Q 160.01 170.13 153.86 181.33
  Q 153.46 181.36 152.46 180.50
  L 154.07 176.31
  Q 160.34 162.90 154.42 149.53
  C 154.15 148.73 153.23 145.70 152.00 146.29
  L 150.25 141.29
  Z"
/>
<path fill="#000000" fill-opacity="0.192" d="
  M 137.00 145.25
  L 136.96 153.25
  L 134.04 152.75
  Q 133.98 151.94 133.54 151.25
  Q 130.26 143.47 121.75 142.96
  Q 121.14 141.46 123.56 142.08
  Q 124.18 142.24 124.82 142.16
  Q 130.92 141.46 133.94 145.06
  Q 134.73 146.01 135.39 145.59
  A 0.59 0.54 47.6 0 1 136.05 145.65
  Q 136.49 146.00 137.00 145.25
  Z"
/>
<path fill="#36107a" d="
  M 79.25 143.35
  Q 79.59 149.35 82.19 155.26
  Q 82.45 158.49 84.88 160.58
  Q 86.19 165.10 89.71 168.50
  L 93.71 172.00
  L 95.29 173.50
  L 82.94 174.94
  Q 72.50 162.82 70.50 146.54
  Q 70.83 145.77 71.70 146.01
  Q 76.91 147.41 79.25 143.35
  Z"
/>
<path fill="#a4baba" d="
  M 69.96 144.00
  L 70.50 146.54
  Q 72.50 162.82 82.94 174.94
  L 84.00 176.79
  Q 83.84 180.27 82.24 182.88
  Q 78.26 176.38 75.18 169.40
  C 73.94 166.57 73.52 163.07 72.00 159.75
  Q 70.38 156.21 69.98 151.56
  Q 69.93 151.08 69.66 150.65
  Q 67.45 147.24 69.96 144.00
  Z"
/>
<path fill="#36107a" d="
  M 97.96 144.00
  L 99.21 147.75
  Q 99.54 149.14 100.46 150.25
  Q 107.51 162.51 121.67 161.09
  C 123.05 160.96 123.66 160.37 124.25 159.21
  C 125.72 160.09 125.02 156.27 126.44 157.85
  A 1.17 0.87 -15.5 0 0 127.24 158.16
  L 131.69 158.12
  A 1.13 0.78 2.0 0 0 132.77 157.43
  L 133.54 151.25
  Q 133.98 151.94 134.04 152.75
  C 136.07 169.46 122.96 172.48 110.19 169.56
  Q 97.92 166.76 91.75 155.46
  L 88.84 146.77
  L 90.70 148.59
  A 0.78 0.75 -33.4 0 0 91.52 148.74
  Q 94.35 147.61 97.27 148.58
  A 0.79 0.64 25.8 0 0 98.09 148.39
  C 99.25 146.86 97.01 145.82 97.96 144.00
  Z"
/>
<path fill="#a7bdbe" d="
  M 137.00 145.25
  C 139.24 144.81 139.28 146.92 140.63 147.93
  A 1.35 1.26 12.7 0 1 141.14 148.68
  Q 141.48 150.11 143.21 150.00
  Q 143.13 150.49 143.46 150.75
  Q 144.74 158.96 141.29 166.50
  C 139.05 162.34 136.34 158.23 136.96 153.25
  L 137.00 145.25
  Z"
/>
<path fill="#a4baba" d="
  M 155.25 145.25
  C 160.52 153.80 160.14 164.58 157.77 174.24
  C 157.14 176.84 155.28 178.98 154.75 181.96
  Q 154.58 182.01 153.86 181.33
  Q 160.01 170.13 158.54 157.25
  Q 158.50 157.12 158.41 157.02
  Q 157.85 150.88 155.25 145.25
  Z"
/>
<path fill="#6c7b7b" d="
  M 154.42 149.53
  Q 158.34 162.97 154.07 176.31
  L 152.46 180.50
  Q 151.01 176.68 147.00 175.96
  L 148.79 172.00
  Q 154.37 160.73 152.21 148.25
  L 152.00 146.29
  C 153.23 145.70 154.15 148.73 154.42 149.53
  Z"
/>
<path fill="#96aaa9" d="
  M 154.89 147.20
  Q 157.52 151.77 158.41 157.02
  Q 158.50 157.12 158.54 157.25
  C 158.48 160.57 158.81 164.95 158.33 165.88
  Q 157.99 166.51 157.99 166.75
  Q 157.74 172.90 154.52 178.08
  Q 154.25 178.51 154.44 178.04
  Q 159.72 165.19 156.55 151.54
  A 2.02 1.31 26.9 0 0 156.07 150.71
  Q 154.62 149.20 154.89 147.20
  Z"
/>
<path fill="#36107a" d="
  M 152.21 148.25
  Q 154.37 160.73 148.79 172.00
  L 141.99 171.01
  A 1.55 0.48 2.1 0 1 141.10 170.70
  C 139.34 169.12 141.95 168.03 141.29 167.00
  Q 141.21 166.75 141.29 166.50
  Q 144.74 158.96 143.46 150.75
  L 143.83 150.28
  A 1.26 0.60 6.7 0 1 144.70 149.98
  L 151.00 149.82
  A 0.65 0.46 -86.5 0 0 151.47 149.24
  Q 151.54 148.60 152.21 148.25
  Z"
/>
<path fill="#839595" d="
  M 154.42 149.53
  Q 160.34 162.90 154.07 176.31
  Q 158.34 162.97 154.42 149.53
  Z"
/>
<path fill="#000001" fill-opacity="0.412" d="
  M 113.27 150.86
  Q 116.43 151.62 119.32 151.98
  C 123.21 152.45 125.98 153.67 124.79 158.14
  Q 116.18 158.88 113.27 150.86
  Z"
/>
<path fill="#000001" fill-opacity="0.392" d="
  M 134.04 152.75
  L 136.96 153.25
  C 136.34 158.23 139.05 162.34 141.29 166.50
  Q 141.21 166.75 141.29 167.00
  L 140.00 169.04
  Q 139.31 168.43 138.75 169.25
  Q 136.63 172.34 132.45 174.52
  A 1.81 1.18 -79.4 0 0 131.79 175.21
  C 129.41 179.54 118.54 178.35 114.43 177.46
  Q 108.11 176.11 102.74 172.23
  Q 100.38 170.53 97.19 170.22
  A 0.46 0.46 86.7 0 0 96.70 170.77
  Q 97.06 172.45 96.00 172.53
  A 1.08 0.56 59.4 0 1 95.25 172.06
  Q 94.68 171.33 93.71 172.00
  L 89.71 168.50
  Q 89.19 166.82 90.29 168.04
  Q 90.84 168.66 90.81 167.83
  L 90.32 155.07
  Q 90.30 154.61 90.67 154.90
  Q 91.15 155.29 91.75 155.46
  Q 97.92 166.76 110.19 169.56
  C 122.96 172.48 136.07 169.46 134.04 152.75
  Z"
/>
<path fill="#000001" fill-opacity="0.322" d="
  M 53.50 186.04
  L 54.50 186.04
  Q 56.75 190.53 60.06 191.94
  C 67.59 195.14 79.04 195.28 86.04 189.80
  C 90.85 186.03 97.53 189.02 102.89 191.09
  C 113.15 195.07 123.67 195.36 134.31 192.56
  Q 138.18 191.55 146.95 186.74
  C 150.75 184.65 152.77 184.64 156.19 187.06
  Q 169.91 196.78 187.21 193.04
  Q 187.65 192.95 188.06 192.59
  Q 189.55 191.31 191.50 191.05
  A 1.69 1.34 14.3 0 0 192.37 190.66
  C 199.52 183.86 201.75 174.27 196.47 165.64
  C 195.76 164.48 195.63 162.06 193.29 163.50
  Q 193.04 161.50 192.00 159.79
  C 192.97 155.80 194.30 159.36 195.13 160.34
  C 202.83 169.35 203.45 184.11 193.72 191.74
  C 185.61 198.09 169.31 197.69 160.48 192.44
  Q 157.31 190.55 154.19 188.56
  C 149.06 185.30 143.72 190.79 138.04 193.21
  C 135.62 194.23 132.60 194.43 129.85 195.38
  C 120.83 198.49 105.22 194.50 96.44 190.81
  Q 92.12 189.00 88.12 191.58
  Q 77.40 198.50 63.50 195.50
  Q 55.85 193.85 53.01 187.76
  A 0.67 0.46 -34.6 0 1 53.26 187.10
  Q 53.68 186.76 53.50 186.04
  Z"
/>
<path fill="#000001" fill-opacity="0.502" d="
  M 54.50 186.04
  L 56.99 186.12
  C 63.40 186.46 74.80 188.33 76.33 187.04
  Q 76.77 186.67 77.17 186.56
  Q 81.03 185.45 84.00 182.25
  Q 86.88 179.14 90.50 181.71
  C 107.93 192.06 133.23 193.21 147.00 175.96
  Q 151.01 176.68 152.46 180.50
  Q 153.46 181.36 153.86 181.33
  Q 154.58 182.01 154.75 181.96
  Q 154.97 182.16 155.25 182.21
  L 157.18 182.91
  C 164.11 186.71 170.02 186.41 178.75 186.36
  C 191.38 186.28 195.33 173.95 193.29 163.50
  C 195.63 162.06 195.76 164.48 196.47 165.64
  C 201.75 174.27 199.52 183.86 192.37 190.66
  A 1.69 1.34 14.3 0 1 191.50 191.05
  Q 189.55 191.31 188.06 192.59
  Q 187.65 192.95 187.21 193.04
  Q 169.91 196.78 156.19 187.06
  C 152.77 184.64 150.75 184.65 146.95 186.74
  Q 138.18 191.55 134.31 192.56
  C 123.67 195.36 113.15 195.07 102.89 191.09
  C 97.53 189.02 90.85 186.03 86.04 189.80
  C 79.04 195.28 67.59 195.14 60.06 191.94
  Q 56.75 190.53 54.50 186.04
  Z"
/>
<path fill="#1d136e" d="
  M 141.29 167.00
  C 141.95 168.03 139.34 169.12 141.10 170.70
  A 1.55 0.48 2.1 0 0 141.99 171.01
  L 148.79 172.00
  L 147.00 175.96
  C 133.23 193.21 107.93 192.06 90.50 181.71
  Q 87.60 178.77 84.00 176.79
  L 82.94 174.94
  L 95.29 173.50
  C 108.10 181.62 131.23 184.69 140.00 169.04
  L 141.29 167.00
  Z"
/>
<path fill="#000001" fill-opacity="0.141" d="
  M 140.00 169.04
  C 131.23 184.69 108.10 181.62 95.29 173.50
  L 93.71 172.00
  Q 94.68 171.33 95.25 172.06
  A 1.08 0.56 59.4 0 0 96.00 172.53
  Q 97.06 172.45 96.70 170.77
  A 0.46 0.46 86.7 0 1 97.19 170.22
  Q 100.38 170.53 102.74 172.23
  Q 108.11 176.11 114.43 177.46
  C 118.54 178.35 129.41 179.54 131.79 175.21
  A 1.81 1.18 -79.4 0 1 132.45 174.52
  Q 136.63 172.34 138.75 169.25
  Q 139.31 168.43 140.00 169.04
  Z"
/>
<path fill="#020404" fill-opacity="0.765" d="
  M 84.00 176.79
  Q 87.60 178.77 90.50 181.71
  Q 86.88 179.14 84.00 182.25
  Q 81.03 185.45 77.17 186.56
  Q 76.77 186.67 76.33 187.04
  C 74.80 188.33 63.40 186.46 56.99 186.12
  C 67.74 186.08 78.39 187.39 82.24 182.88
  Q 83.84 180.27 84.00 176.79
  Z"
/>
<path fill="#000000" fill-opacity="0.192" d="
  M 142.54 192.50
  Q 141.85 192.99 141.00 193.04
  Q 139.76 193.17 138.93 194.04
  A 0.68 0.57 -65.4 0 1 138.47 194.26
  C 136.85 194.26 142.92 191.63 143.23 191.50
  Q 143.73 191.29 143.34 191.69
  L 142.54 192.50
  Z"
/>
<path fill="#010102" fill-opacity="0.055" d="
  M 155.04 197.75
  Q 156.90 197.14 157.00 198.75
  Q 155.27 199.22 155.04 197.75
  Z"
/>
<path fill="#010102" fill-opacity="0.055" d="
  M 157.00 198.75
  Q 158.92 198.13 158.96 199.75
  Q 157.10 200.36 157.00 198.75
  Z"
/>
</svg>
